<svg width="1728" height="1080" viewBox="0 0 1728 1080" fill="none" xmlns="http://www.w3.org/2000/svg">
<g clip-path="url(#clip0_167_179)">
<rect width="1728" height="1080" fill="#121214"/>
<g opacity="0.2" filter="url(#filter0_f_167_179)">
<ellipse cx="864" cy="405.145" rx="864" ry="405.145" fill="#35875D"/>
</g>
<path d="M246.166 678.328C248.093 678.328 249.551 679.058 250.542 680.517C251.55 681.961 252.055 684.062 252.055 686.82C252.055 689.579 251.55 691.688 250.542 693.147C249.551 694.606 248.093 695.336 246.166 695.336C244.257 695.336 242.798 694.606 241.79 693.147C240.782 691.688 240.277 689.579 240.277 686.82C240.277 684.078 240.782 681.977 241.79 680.517C242.798 679.058 244.257 678.328 246.166 678.328ZM242.195 686.82C242.195 688.777 242.393 690.308 242.789 691.415L248.786 680.758C248.156 680.004 247.282 679.627 246.166 679.627C244.923 679.627 243.951 680.221 243.249 681.407C242.546 682.578 242.195 684.382 242.195 686.82ZM246.166 694.013C247.427 694.013 248.408 693.428 249.11 692.257C249.813 691.07 250.164 689.258 250.164 686.82C250.164 684.751 249.939 683.147 249.488 682.009L243.492 692.762C244.14 693.596 245.031 694.013 246.166 694.013Z" fill="url(#paint0_linear_167_179)" fill-opacity="0.6"/>
<path d="M247.787 721.314H251.757V722.589H241.466V721.314H246.058V707.794L241.682 710.127L240.926 709.045L246.328 706.062H247.787V721.314Z" fill="url(#paint1_linear_167_179)" fill-opacity="0.6"/>
<path d="M246.166 733.314C248.093 733.314 249.551 734.044 250.542 735.504C251.55 736.947 252.055 739.048 252.055 741.806C252.055 744.565 251.55 746.674 250.542 748.133C249.551 749.593 248.093 750.322 246.166 750.322C244.257 750.322 242.798 749.593 241.79 748.133C240.782 746.674 240.277 744.565 240.277 741.806C240.277 739.064 240.782 736.963 241.79 735.504C242.798 734.044 244.257 733.314 246.166 733.314ZM242.195 741.806C242.195 743.763 242.393 745.295 242.789 746.401L248.786 735.744C248.156 734.99 247.282 734.614 246.166 734.614C244.923 734.614 243.951 735.207 243.249 736.394C242.546 737.564 242.195 739.369 242.195 741.806ZM246.166 748.999C247.427 748.999 248.408 748.414 249.11 747.243C249.813 746.056 250.164 744.244 250.164 741.806C250.164 739.738 249.939 738.134 249.488 736.995L243.492 747.748C244.14 748.582 245.031 748.999 246.166 748.999Z" fill="url(#paint2_linear_167_179)" fill-opacity="0.6"/>
<path d="M247.787 776.3H251.757V777.575H241.466V776.3H246.058V762.78L241.682 765.114L240.926 764.031L246.328 761.048H247.787V776.3Z" fill="url(#paint3_linear_167_179)" fill-opacity="0.6"/>
<path d="M247.787 803.793H251.757V805.068H241.466V803.793H246.058V790.274L241.682 792.607L240.926 791.524L246.328 788.541H247.787V803.793Z" fill="url(#paint4_linear_167_179)" fill-opacity="0.6"/>
<path d="M246.166 815.794C248.093 815.794 249.551 816.524 250.542 817.983C251.55 819.427 252.055 821.528 252.055 824.286C252.055 827.045 251.55 829.153 250.542 830.613C249.551 832.072 248.093 832.802 246.166 832.802C244.257 832.802 242.798 832.072 241.79 830.613C240.782 829.153 240.277 827.045 240.277 824.286C240.277 821.544 240.782 819.443 241.79 817.983C242.798 816.524 244.257 815.794 246.166 815.794ZM242.195 824.286C242.195 826.243 242.393 827.774 242.789 828.881L248.786 818.224C248.156 817.47 247.282 817.093 246.166 817.093C244.923 817.093 243.951 817.687 243.249 818.873C242.546 820.044 242.195 821.848 242.195 824.286ZM246.166 831.479C247.427 831.479 248.408 830.894 249.11 829.723C249.813 828.536 250.164 826.724 250.164 824.286C250.164 822.217 249.939 820.613 249.488 819.475L243.492 830.228C244.14 831.062 245.031 831.479 246.166 831.479Z" fill="url(#paint5_linear_167_179)" fill-opacity="0.6"/>
<path d="M247.787 858.78H251.757V860.055H241.466V858.78H246.058V845.26L241.682 847.593L240.926 846.511L246.328 843.528H247.787V858.78Z" fill="url(#paint6_linear_167_179)" fill-opacity="0.6"/>
<path d="M246.166 870.78C248.093 870.78 249.551 871.51 250.542 872.97C251.55 874.413 252.055 876.514 252.055 879.272C252.055 882.031 251.55 884.14 250.542 885.599C249.551 887.059 248.093 887.788 246.166 887.788C244.257 887.788 242.798 887.059 241.79 885.599C240.782 884.14 240.277 882.031 240.277 879.272C240.277 876.53 240.782 874.429 241.79 872.97C242.798 871.51 244.257 870.78 246.166 870.78ZM242.195 879.272C242.195 881.229 242.393 882.761 242.789 883.867L248.786 873.21C248.156 872.456 247.282 872.079 246.166 872.079C244.923 872.079 243.951 872.673 243.249 873.86C242.546 875.03 242.195 876.835 242.195 879.272ZM246.166 886.465C247.427 886.465 248.408 885.88 249.11 884.709C249.813 883.522 250.164 881.71 250.164 879.272C250.164 877.204 249.939 875.6 249.488 874.461L243.492 885.214C244.14 886.048 245.031 886.465 246.166 886.465Z" fill="url(#paint7_linear_167_179)" fill-opacity="0.6"/>
<path d="M246.166 898.274C248.093 898.274 249.551 899.003 250.542 900.463C251.55 901.906 252.055 904.007 252.055 906.766C252.055 909.524 251.55 911.633 250.542 913.092C249.551 914.552 248.093 915.282 246.166 915.282C244.257 915.282 242.798 914.552 241.79 913.092C240.782 911.633 240.277 909.524 240.277 906.766C240.277 904.023 240.782 901.922 241.79 900.463C242.798 899.003 244.257 898.274 246.166 898.274ZM242.195 906.766C242.195 908.722 242.393 910.254 242.789 911.36L248.786 900.703C248.156 899.95 247.282 899.573 246.166 899.573C244.923 899.573 243.951 900.166 243.249 901.353C242.546 902.524 242.195 904.328 242.195 906.766ZM246.166 913.959C247.427 913.959 248.408 913.373 249.11 912.202C249.813 911.016 250.164 909.203 250.164 906.766C250.164 904.697 249.939 903.093 249.488 901.954L243.492 912.708C244.14 913.541 245.031 913.959 246.166 913.959Z" fill="url(#paint8_linear_167_179)" fill-opacity="0.6"/>
<path d="M247.787 941.259H251.757V942.534H241.466V941.259H246.058V927.739L241.682 930.073L240.926 928.99L246.328 926.007H247.787V941.259Z" fill="url(#paint9_linear_167_179)" fill-opacity="0.6"/>
<path d="M246.166 953.26C248.093 953.26 249.551 953.99 250.542 955.449C251.55 956.893 252.055 958.993 252.055 961.752C252.055 964.51 251.55 966.619 250.542 968.079C249.551 969.538 248.093 970.268 246.166 970.268C244.257 970.268 242.798 969.538 241.79 968.079C240.782 966.619 240.277 964.51 240.277 961.752C240.277 959.01 240.782 956.909 241.79 955.449C242.798 953.99 244.257 953.26 246.166 953.26ZM242.195 961.752C242.195 963.709 242.393 965.24 242.789 966.347L248.786 955.69C248.156 954.936 247.282 954.559 246.166 954.559C244.923 954.559 243.951 955.152 243.249 956.339C242.546 957.51 242.195 959.314 242.195 961.752ZM246.166 968.945C247.427 968.945 248.408 968.359 249.11 967.189C249.813 966.002 250.164 964.19 250.164 961.752C250.164 959.683 249.939 958.079 249.488 956.941L243.492 967.694C244.14 968.528 245.031 968.945 246.166 968.945Z" fill="url(#paint10_linear_167_179)" fill-opacity="0.6"/>
<path d="M247.787 996.246H251.757V997.521H241.466V996.246H246.058V982.726L241.682 985.059L240.926 983.977L246.328 980.994H247.787V996.246Z" fill="url(#paint11_linear_167_179)" fill-opacity="0.6"/>
<path d="M247.787 1023.74H251.757V1025.01H241.466V1023.74H246.058V1010.22L241.682 1012.55L240.926 1011.47L246.328 1008.49H247.787V1023.74Z" fill="url(#paint12_linear_167_179)" fill-opacity="0.6"/>
<path d="M296.331 733.314C298.258 733.314 299.717 734.044 300.707 735.504C301.715 736.947 302.22 739.048 302.22 741.806C302.22 744.565 301.715 746.674 300.707 748.133C299.717 749.593 298.258 750.322 296.331 750.322C294.422 750.322 292.964 749.593 291.955 748.133C290.947 746.674 290.442 744.565 290.442 741.806C290.442 739.064 290.947 736.963 291.955 735.504C292.964 734.044 294.422 733.314 296.331 733.314ZM292.36 741.806C292.36 743.763 292.558 745.295 292.955 746.401L298.951 735.744C298.321 734.99 297.448 734.614 296.331 734.614C295.089 734.614 294.116 735.207 293.414 736.394C292.711 737.564 292.36 739.369 292.36 741.806ZM296.331 748.999C297.592 748.999 298.573 748.414 299.275 747.243C299.978 746.056 300.329 744.244 300.329 741.806C300.329 739.738 300.104 738.134 299.654 736.995L293.657 747.748C294.305 748.582 295.197 748.999 296.331 748.999Z" fill="url(#paint13_linear_167_179)" fill-opacity="0.6"/>
<path d="M297.952 776.3H301.923V777.575H291.631V776.3H296.223V762.78L291.847 765.114L291.091 764.031L296.493 761.048H297.952V776.3Z" fill="url(#paint14_linear_167_179)" fill-opacity="0.6"/>
<path d="M296.331 788.301C298.258 788.301 299.717 789.031 300.707 790.49C301.715 791.933 302.22 794.034 302.22 796.793C302.22 799.551 301.715 801.66 300.707 803.12C299.717 804.579 298.258 805.309 296.331 805.309C294.422 805.309 292.964 804.579 291.955 803.12C290.947 801.66 290.442 799.551 290.442 796.793C290.442 794.05 290.947 791.949 291.955 790.49C292.964 789.031 294.422 788.301 296.331 788.301ZM292.36 796.793C292.36 798.749 292.558 800.281 292.955 801.388L298.951 790.731C298.321 789.977 297.448 789.6 296.331 789.6C295.089 789.6 294.116 790.193 293.414 791.38C292.711 792.551 292.36 794.355 292.36 796.793ZM296.331 803.986C297.592 803.986 298.573 803.4 299.275 802.23C299.978 801.043 300.329 799.231 300.329 796.793C300.329 794.724 300.104 793.12 299.654 791.982L293.657 802.735C294.305 803.569 295.197 803.986 296.331 803.986Z" fill="url(#paint15_linear_167_179)" fill-opacity="0.6"/>
<path d="M296.331 815.794C298.258 815.794 299.717 816.524 300.707 817.983C301.715 819.427 302.22 821.528 302.22 824.286C302.22 827.045 301.715 829.153 300.707 830.613C299.717 832.072 298.258 832.802 296.331 832.802C294.422 832.802 292.964 832.072 291.955 830.613C290.947 829.153 290.442 827.045 290.442 824.286C290.442 821.544 290.947 819.443 291.955 817.983C292.964 816.524 294.422 815.794 296.331 815.794ZM292.36 824.286C292.36 826.243 292.558 827.774 292.955 828.881L298.951 818.224C298.321 817.47 297.448 817.093 296.331 817.093C295.089 817.093 294.116 817.687 293.414 818.873C292.711 820.044 292.36 821.848 292.36 824.286ZM296.331 831.479C297.592 831.479 298.573 830.894 299.275 829.723C299.978 828.536 300.329 826.724 300.329 824.286C300.329 822.217 300.104 820.613 299.654 819.475L293.657 830.228C294.305 831.062 295.197 831.479 296.331 831.479Z" fill="url(#paint16_linear_167_179)" fill-opacity="0.6"/>
<path d="M297.952 858.78H301.923V860.055H291.631V858.78H296.223V845.26L291.847 847.593L291.091 846.511L296.493 843.528H297.952V858.78Z" fill="url(#paint17_linear_167_179)" fill-opacity="0.6"/>
<path d="M296.331 870.78C298.258 870.78 299.717 871.51 300.707 872.97C301.715 874.413 302.22 876.514 302.22 879.272C302.22 882.031 301.715 884.14 300.707 885.599C299.717 887.059 298.258 887.788 296.331 887.788C294.422 887.788 292.964 887.059 291.955 885.599C290.947 884.14 290.442 882.031 290.442 879.272C290.442 876.53 290.947 874.429 291.955 872.97C292.964 871.51 294.422 870.78 296.331 870.78ZM292.36 879.272C292.36 881.229 292.558 882.761 292.955 883.867L298.951 873.21C298.321 872.456 297.448 872.079 296.331 872.079C295.089 872.079 294.116 872.673 293.414 873.86C292.711 875.03 292.36 876.835 292.36 879.272ZM296.331 886.465C297.592 886.465 298.573 885.88 299.275 884.709C299.978 883.522 300.329 881.71 300.329 879.272C300.329 877.204 300.104 875.6 299.654 874.461L293.657 885.214C294.305 886.048 295.197 886.465 296.331 886.465Z" fill="url(#paint18_linear_167_179)" fill-opacity="0.6"/>
<path d="M297.952 913.766H301.923V915.041H291.631V913.766H296.223V900.246L291.847 902.58L291.091 901.497L296.493 898.514H297.952V913.766Z" fill="url(#paint19_linear_167_179)" fill-opacity="0.6"/>
<path d="M296.331 925.767C298.258 925.767 299.717 926.497 300.707 927.956C301.715 929.399 302.22 931.5 302.22 934.259C302.22 937.017 301.715 939.126 300.707 940.586C299.717 942.045 298.258 942.775 296.331 942.775C294.422 942.775 292.964 942.045 291.955 940.586C290.947 939.126 290.442 937.017 290.442 934.259C290.442 931.516 290.947 929.415 291.955 927.956C292.964 926.497 294.422 925.767 296.331 925.767ZM292.36 934.259C292.36 936.215 292.558 937.747 292.955 938.854L298.951 928.197C298.321 927.443 297.448 927.066 296.331 927.066C295.089 927.066 294.116 927.659 293.414 928.846C292.711 930.017 292.36 931.821 292.36 934.259ZM296.331 941.452C297.592 941.452 298.573 940.866 299.275 939.696C299.978 938.509 300.329 936.697 300.329 934.259C300.329 932.19 300.104 930.586 299.654 929.447L293.657 940.201C294.305 941.035 295.197 941.452 296.331 941.452Z" fill="url(#paint20_linear_167_179)" fill-opacity="0.6"/>
<path d="M296.331 953.26C298.258 953.26 299.717 953.99 300.707 955.449C301.715 956.893 302.22 958.993 302.22 961.752C302.22 964.51 301.715 966.619 300.707 968.079C299.717 969.538 298.258 970.268 296.331 970.268C294.422 970.268 292.964 969.538 291.955 968.079C290.947 966.619 290.442 964.51 290.442 961.752C290.442 959.01 290.947 956.909 291.955 955.449C292.964 953.99 294.422 953.26 296.331 953.26ZM292.36 961.752C292.36 963.709 292.558 965.24 292.955 966.347L298.951 955.69C298.321 954.936 297.448 954.559 296.331 954.559C295.089 954.559 294.116 955.152 293.414 956.339C292.711 957.51 292.36 959.314 292.36 961.752ZM296.331 968.945C297.592 968.945 298.573 968.359 299.275 967.189C299.978 966.002 300.329 964.19 300.329 961.752C300.329 959.683 300.104 958.079 299.654 956.941L293.657 967.694C294.305 968.528 295.197 968.945 296.331 968.945Z" fill="url(#paint21_linear_167_179)" fill-opacity="0.6"/>
<path d="M297.952 996.246H301.923V997.521H291.631V996.246H296.223V982.726L291.847 985.059L291.091 983.977L296.493 980.994H297.952V996.246Z" fill="url(#paint22_linear_167_179)" fill-opacity="0.6"/>
<path d="M296.331 1008.25C298.258 1008.25 299.717 1008.98 300.707 1010.44C301.715 1011.88 302.22 1013.98 302.22 1016.74C302.22 1019.5 301.715 1021.61 300.707 1023.07C299.717 1024.52 298.258 1025.25 296.331 1025.25C294.422 1025.25 292.964 1024.52 291.955 1023.07C290.947 1021.61 290.442 1019.5 290.442 1016.74C290.442 1014 290.947 1011.89 291.955 1010.44C292.964 1008.98 294.422 1008.25 296.331 1008.25ZM292.36 1016.74C292.36 1018.69 292.558 1020.23 292.955 1021.33L298.951 1010.68C298.321 1009.92 297.448 1009.55 296.331 1009.55C295.089 1009.55 294.116 1010.14 293.414 1011.33C292.711 1012.5 292.36 1014.3 292.36 1016.74ZM296.331 1023.93C297.592 1023.93 298.573 1023.35 299.275 1022.18C299.978 1020.99 300.329 1019.18 300.329 1016.74C300.329 1014.67 300.104 1013.07 299.654 1011.93L293.657 1022.68C294.305 1023.51 295.197 1023.93 296.331 1023.93Z" fill="url(#paint23_linear_167_179)" fill-opacity="0.6"/>
<path d="M297.952 1051.23H301.923V1052.51H291.631V1051.23H296.223V1037.71L291.847 1040.05L291.091 1038.96L296.493 1035.98H297.952V1051.23Z" fill="url(#paint24_linear_167_179)" fill-opacity="0.6"/>
<path d="M297.952 1078.73H301.923V1080H291.631V1078.73H296.223V1065.21L291.847 1067.54L291.091 1066.46L296.493 1063.47H297.952V1078.73Z" fill="url(#paint25_linear_167_179)" fill-opacity="0.6"/>
<path d="M221.083 760.808C223.01 760.808 224.469 761.537 225.459 762.997C226.468 764.44 226.972 766.541 226.972 769.3C226.972 772.058 226.468 774.167 225.459 775.627C224.469 777.086 223.01 777.816 221.083 777.816C219.175 777.816 217.716 777.086 216.707 775.627C215.699 774.167 215.195 772.058 215.195 769.3C215.195 766.557 215.699 764.456 216.707 762.997C217.716 761.537 219.175 760.808 221.083 760.808ZM217.113 769.3C217.113 771.256 217.311 772.788 217.707 773.894L223.704 763.237C223.073 762.484 222.2 762.107 221.083 762.107C219.841 762.107 218.868 762.7 218.166 763.887C217.464 765.058 217.113 766.862 217.113 769.3ZM221.083 776.493C222.344 776.493 223.325 775.907 224.028 774.736C224.73 773.55 225.081 771.737 225.081 769.3C225.081 767.231 224.856 765.627 224.406 764.488L218.409 775.242C219.058 776.076 219.949 776.493 221.083 776.493Z" fill="url(#paint26_linear_167_179)" fill-opacity="0.6"/>
<path d="M221.083 788.301C223.01 788.301 224.469 789.031 225.459 790.49C226.468 791.933 226.972 794.034 226.972 796.793C226.972 799.551 226.468 801.66 225.459 803.12C224.469 804.579 223.01 805.309 221.083 805.309C219.175 805.309 217.716 804.579 216.707 803.12C215.699 801.66 215.195 799.551 215.195 796.793C215.195 794.05 215.699 791.949 216.707 790.49C217.716 789.031 219.175 788.301 221.083 788.301ZM217.113 796.793C217.113 798.749 217.311 800.281 217.707 801.388L223.704 790.731C223.073 789.977 222.2 789.6 221.083 789.6C219.841 789.6 218.868 790.193 218.166 791.38C217.464 792.551 217.113 794.355 217.113 796.793ZM221.083 803.986C222.344 803.986 223.325 803.4 224.028 802.23C224.73 801.043 225.081 799.231 225.081 796.793C225.081 794.724 224.856 793.12 224.406 791.982L218.409 802.735C219.058 803.569 219.949 803.986 221.083 803.986Z" fill="url(#paint27_linear_167_179)" fill-opacity="0.6"/>
<path d="M222.704 831.286H226.675V832.561H216.383V831.286H220.975V817.767L216.599 820.1L215.843 819.018L221.246 816.035H222.704V831.286Z" fill="url(#paint28_linear_167_179)" fill-opacity="0.6"/>
<path d="M221.083 843.287C223.01 843.287 224.469 844.017 225.459 845.476C226.468 846.92 226.972 849.021 226.972 851.779C226.972 854.538 226.468 856.647 225.459 858.106C224.469 859.566 223.01 860.295 221.083 860.295C219.175 860.295 217.716 859.566 216.707 858.106C215.699 856.647 215.195 854.538 215.195 851.779C215.195 849.037 215.699 846.936 216.707 845.476C217.716 844.017 219.175 843.287 221.083 843.287ZM217.113 851.779C217.113 853.736 217.311 855.267 217.707 856.374L223.704 845.717C223.073 844.963 222.2 844.586 221.083 844.586C219.841 844.586 218.868 845.18 218.166 846.366C217.464 847.537 217.113 849.341 217.113 851.779ZM221.083 858.972C222.344 858.972 223.325 858.387 224.028 857.216C224.73 856.029 225.081 854.217 225.081 851.779C225.081 849.71 224.856 848.107 224.406 846.968L218.409 857.721C219.058 858.555 219.949 858.972 221.083 858.972Z" fill="url(#paint29_linear_167_179)" fill-opacity="0.6"/>
<path d="M222.704 886.273H226.675V887.548H216.383V886.273H220.975V872.753L216.599 875.087L215.843 874.004L221.246 871.021H222.704V886.273Z" fill="url(#paint30_linear_167_179)" fill-opacity="0.6"/>
<path d="M222.704 913.766H226.675V915.041H216.383V913.766H220.975V900.246L216.599 902.58L215.843 901.497L221.246 898.514H222.704V913.766Z" fill="url(#paint31_linear_167_179)" fill-opacity="0.6"/>
<path d="M272.869 721.314H276.84V722.589H266.548V721.314H271.14V707.794L266.765 710.127L266.008 709.045L271.411 706.062H272.869V721.314Z" fill="url(#paint32_linear_167_179)" fill-opacity="0.6"/>
<path d="M271.249 733.314C273.175 733.314 274.634 734.044 275.624 735.504C276.633 736.947 277.137 739.048 277.137 741.806C277.137 744.565 276.633 746.674 275.624 748.133C274.634 749.593 273.175 750.322 271.249 750.322C269.34 750.322 267.881 749.593 266.873 748.133C265.864 746.674 265.36 744.565 265.36 741.806C265.36 739.064 265.864 736.963 266.873 735.504C267.881 734.044 269.34 733.314 271.249 733.314ZM267.278 741.806C267.278 743.763 267.476 745.295 267.872 746.401L273.869 735.744C273.238 734.99 272.365 734.614 271.249 734.614C270.006 734.614 269.034 735.207 268.331 736.394C267.629 737.564 267.278 739.369 267.278 741.806ZM271.249 748.999C272.509 748.999 273.491 748.414 274.193 747.243C274.895 746.056 275.246 744.244 275.246 741.806C275.246 739.738 275.021 738.134 274.571 736.995L268.574 747.748C269.223 748.582 270.114 748.999 271.249 748.999Z" fill="url(#paint33_linear_167_179)" fill-opacity="0.6"/>
<path d="M272.869 776.3H276.84V777.575H266.548V776.3H271.14V762.78L266.765 765.114L266.008 764.031L271.411 761.048H272.869V776.3Z" fill="url(#paint34_linear_167_179)" fill-opacity="0.6"/>
<path d="M272.869 803.793H276.84V805.068H266.548V803.793H271.14V790.274L266.765 792.607L266.008 791.524L271.411 788.541H272.869V803.793Z" fill="url(#paint35_linear_167_179)" fill-opacity="0.6"/>
<path d="M271.249 815.794C273.175 815.794 274.634 816.524 275.624 817.983C276.633 819.427 277.137 821.528 277.137 824.286C277.137 827.045 276.633 829.153 275.624 830.613C274.634 832.072 273.175 832.802 271.249 832.802C269.34 832.802 267.881 832.072 266.873 830.613C265.864 829.153 265.36 827.045 265.36 824.286C265.36 821.544 265.864 819.443 266.873 817.983C267.881 816.524 269.34 815.794 271.249 815.794ZM267.278 824.286C267.278 826.243 267.476 827.774 267.872 828.881L273.869 818.224C273.238 817.47 272.365 817.093 271.249 817.093C270.006 817.093 269.034 817.687 268.331 818.873C267.629 820.044 267.278 821.848 267.278 824.286ZM271.249 831.479C272.509 831.479 273.491 830.894 274.193 829.723C274.895 828.536 275.246 826.724 275.246 824.286C275.246 822.217 275.021 820.613 274.571 819.475L268.574 830.228C269.223 831.062 270.114 831.479 271.249 831.479Z" fill="url(#paint36_linear_167_179)" fill-opacity="0.6"/>
<path d="M272.869 858.78H276.84V860.055H266.548V858.78H271.14V845.26L266.765 847.593L266.008 846.511L271.411 843.528H272.869V858.78Z" fill="url(#paint37_linear_167_179)" fill-opacity="0.6"/>
<path d="M272.869 886.273H276.84V887.548H266.548V886.273H271.14V872.753L266.765 875.087L266.008 874.004L271.411 871.021H272.869V886.273Z" fill="url(#paint38_linear_167_179)" fill-opacity="0.6"/>
<path d="M271.249 898.274C273.175 898.274 274.634 899.003 275.624 900.463C276.633 901.906 277.137 904.007 277.137 906.766C277.137 909.524 276.633 911.633 275.624 913.092C274.634 914.552 273.175 915.282 271.249 915.282C269.34 915.282 267.881 914.552 266.873 913.092C265.864 911.633 265.36 909.524 265.36 906.766C265.36 904.023 265.864 901.922 266.873 900.463C267.881 899.003 269.34 898.274 271.249 898.274ZM267.278 906.766C267.278 908.722 267.476 910.254 267.872 911.36L273.869 900.703C273.238 899.95 272.365 899.573 271.249 899.573C270.006 899.573 269.034 900.166 268.331 901.353C267.629 902.524 267.278 904.328 267.278 906.766ZM271.249 913.959C272.509 913.959 273.491 913.373 274.193 912.202C274.895 911.016 275.246 909.203 275.246 906.766C275.246 904.697 275.021 903.093 274.571 901.954L268.574 912.708C269.223 913.541 270.114 913.959 271.249 913.959Z" fill="url(#paint39_linear_167_179)" fill-opacity="0.6"/>
<path d="M272.869 941.259H276.84V942.534H266.548V941.259H271.14V927.739L266.765 930.073L266.008 928.99L271.411 926.007H272.869V941.259Z" fill="url(#paint40_linear_167_179)" fill-opacity="0.6"/>
<path d="M271.249 953.26C273.175 953.26 274.634 953.99 275.624 955.449C276.633 956.893 277.137 958.993 277.137 961.752C277.137 964.51 276.633 966.619 275.624 968.079C274.634 969.538 273.175 970.268 271.249 970.268C269.34 970.268 267.881 969.538 266.873 968.079C265.864 966.619 265.36 964.51 265.36 961.752C265.36 959.01 265.864 956.909 266.873 955.449C267.881 953.99 269.34 953.26 271.249 953.26ZM267.278 961.752C267.278 963.709 267.476 965.24 267.872 966.347L273.869 955.69C273.238 954.936 272.365 954.559 271.249 954.559C270.006 954.559 269.034 955.152 268.331 956.339C267.629 957.51 267.278 959.314 267.278 961.752ZM271.249 968.945C272.509 968.945 273.491 968.359 274.193 967.189C274.895 966.002 275.246 964.19 275.246 961.752C275.246 959.683 275.021 958.079 274.571 956.941L268.574 967.694C269.223 968.528 270.114 968.945 271.249 968.945Z" fill="url(#paint41_linear_167_179)" fill-opacity="0.6"/>
<path d="M321.414 705.821C323.34 705.821 324.799 706.551 325.79 708.01C326.798 709.454 327.302 711.555 327.302 714.313C327.302 717.072 326.798 719.181 325.79 720.64C324.799 722.1 323.34 722.829 321.414 722.829C319.505 722.829 318.046 722.1 317.038 720.64C316.029 719.181 315.525 717.072 315.525 714.313C315.525 711.571 316.029 709.47 317.038 708.01C318.046 706.551 319.505 705.821 321.414 705.821ZM317.443 714.313C317.443 716.27 317.641 717.801 318.037 718.908L324.034 708.251C323.403 707.497 322.53 707.12 321.414 707.12C320.171 707.12 319.199 707.714 318.496 708.901C317.794 710.071 317.443 711.876 317.443 714.313ZM321.414 721.506C322.674 721.506 323.656 720.921 324.358 719.75C325.06 718.563 325.411 716.751 325.411 714.313C325.411 712.244 325.186 710.641 324.736 709.502L318.739 720.255C319.388 721.089 320.279 721.506 321.414 721.506Z" fill="url(#paint42_linear_167_179)" fill-opacity="0.6"/>
<path d="M323.034 748.807H327.005V750.082H316.714V748.807H321.306V735.287L316.93 737.621L316.173 736.538L321.576 733.555H323.034V748.807Z" fill="url(#paint43_linear_167_179)" fill-opacity="0.6"/>
<path d="M323.034 776.3H327.005V777.575H316.714V776.3H321.306V762.78L316.93 765.114L316.173 764.031L321.576 761.048H323.034V776.3Z" fill="url(#paint44_linear_167_179)" fill-opacity="0.6"/>
<path d="M321.414 788.301C323.34 788.301 324.799 789.031 325.79 790.49C326.798 791.933 327.302 794.034 327.302 796.793C327.302 799.551 326.798 801.66 325.79 803.12C324.799 804.579 323.34 805.309 321.414 805.309C319.505 805.309 318.046 804.579 317.038 803.12C316.029 801.66 315.525 799.551 315.525 796.793C315.525 794.05 316.029 791.949 317.038 790.49C318.046 789.031 319.505 788.301 321.414 788.301ZM317.443 796.793C317.443 798.749 317.641 800.281 318.037 801.388L324.034 790.731C323.403 789.977 322.53 789.6 321.414 789.6C320.171 789.6 319.199 790.193 318.496 791.38C317.794 792.551 317.443 794.355 317.443 796.793ZM321.414 803.986C322.674 803.986 323.656 803.4 324.358 802.23C325.06 801.043 325.411 799.231 325.411 796.793C325.411 794.724 325.186 793.12 324.736 791.982L318.739 802.735C319.388 803.569 320.279 803.986 321.414 803.986Z" fill="url(#paint45_linear_167_179)" fill-opacity="0.6"/>
<path d="M321.414 815.794C323.34 815.794 324.799 816.524 325.79 817.983C326.798 819.427 327.302 821.528 327.302 824.286C327.302 827.045 326.798 829.153 325.79 830.613C324.799 832.072 323.34 832.802 321.414 832.802C319.505 832.802 318.046 832.072 317.038 830.613C316.029 829.153 315.525 827.045 315.525 824.286C315.525 821.544 316.029 819.443 317.038 817.983C318.046 816.524 319.505 815.794 321.414 815.794ZM317.443 824.286C317.443 826.243 317.641 827.774 318.037 828.881L324.034 818.224C323.403 817.47 322.53 817.093 321.414 817.093C320.171 817.093 319.199 817.687 318.496 818.873C317.794 820.044 317.443 821.848 317.443 824.286ZM321.414 831.479C322.674 831.479 323.656 830.894 324.358 829.723C325.06 828.536 325.411 826.724 325.411 824.286C325.411 822.217 325.186 820.613 324.736 819.475L318.739 830.228C319.388 831.062 320.279 831.479 321.414 831.479Z" fill="url(#paint46_linear_167_179)" fill-opacity="0.6"/>
<g opacity="0.6">
<path d="M1389.01 331.062C1390.85 331.062 1392.24 331.762 1393.18 333.162C1394.15 334.548 1394.63 336.564 1394.63 339.211C1394.63 341.858 1394.15 343.882 1393.18 345.282C1392.24 346.683 1390.85 347.383 1389.01 347.383C1387.19 347.383 1385.8 346.683 1384.84 345.282C1383.87 343.882 1383.39 341.858 1383.39 339.211C1383.39 336.579 1383.87 334.563 1384.84 333.162C1385.8 331.762 1387.19 331.062 1389.01 331.062ZM1385.22 339.211C1385.22 341.089 1385.41 342.558 1385.79 343.62L1391.51 333.393C1390.91 332.67 1390.08 332.308 1389.01 332.308C1387.82 332.308 1386.9 332.878 1386.23 334.017C1385.56 335.14 1385.22 336.871 1385.22 339.211ZM1389.01 346.114C1390.21 346.114 1391.15 345.552 1391.82 344.428C1392.49 343.289 1392.82 341.55 1392.82 339.211C1392.82 337.225 1392.61 335.686 1392.18 334.594L1386.46 344.913C1387.08 345.713 1387.93 346.114 1389.01 346.114Z" fill="url(#paint47_linear_167_179)"/>
<path d="M1390.56 372.313H1394.34V373.536H1384.53V372.313H1388.91V359.339L1384.73 361.578L1384.01 360.539L1389.16 357.676H1390.56V372.313Z" fill="url(#paint48_linear_167_179)"/>
<path d="M1389.01 383.829C1390.85 383.829 1392.24 384.53 1393.18 385.93C1394.15 387.315 1394.63 389.332 1394.63 391.979C1394.63 394.626 1394.15 396.65 1393.18 398.05C1392.24 399.451 1390.85 400.151 1389.01 400.151C1387.19 400.151 1385.8 399.451 1384.84 398.05C1383.87 396.65 1383.39 394.626 1383.39 391.979C1383.39 389.347 1383.87 387.331 1384.84 385.93C1385.8 384.53 1387.19 383.829 1389.01 383.829ZM1385.22 391.979C1385.22 393.856 1385.41 395.326 1385.79 396.388L1391.51 386.161C1390.91 385.438 1390.08 385.076 1389.01 385.076C1387.82 385.076 1386.9 385.646 1386.23 386.784C1385.56 387.908 1385.22 389.639 1385.22 391.979ZM1389.01 398.881C1390.21 398.881 1391.15 398.32 1391.82 397.196C1392.49 396.057 1392.82 394.318 1392.82 391.979C1392.82 389.993 1392.61 388.454 1392.18 387.362L1386.46 397.681C1387.08 398.481 1387.93 398.881 1389.01 398.881Z" fill="url(#paint49_linear_167_179)"/>
<path d="M1390.56 425.081H1394.34V426.304H1384.53V425.081H1388.91V412.106L1384.73 414.346L1384.01 413.307L1389.16 410.444H1390.56V425.081Z" fill="url(#paint50_linear_167_179)"/>
<path d="M1390.56 451.465H1394.34V452.688H1384.53V451.465H1388.91V438.49L1384.73 440.73L1384.01 439.691L1389.16 436.828H1390.56V451.465Z" fill="url(#paint51_linear_167_179)"/>
<path d="M1389.01 462.981C1390.85 462.981 1392.24 463.682 1393.18 465.082C1394.15 466.467 1394.63 468.483 1394.63 471.131C1394.63 473.778 1394.15 475.802 1393.18 477.202C1392.24 478.603 1390.85 479.303 1389.01 479.303C1387.19 479.303 1385.8 478.603 1384.84 477.202C1383.87 475.802 1383.39 473.778 1383.39 471.131C1383.39 468.499 1383.87 466.483 1384.84 465.082C1385.8 463.682 1387.19 462.981 1389.01 462.981ZM1385.22 471.131C1385.22 473.008 1385.41 474.478 1385.79 475.54L1391.51 465.313C1390.91 464.59 1390.08 464.228 1389.01 464.228C1387.82 464.228 1386.9 464.797 1386.23 465.936C1385.56 467.06 1385.22 468.791 1385.22 471.131ZM1389.01 478.033C1390.21 478.033 1391.15 477.472 1391.82 476.348C1392.49 475.209 1392.82 473.47 1392.82 471.131C1392.82 469.145 1392.61 467.606 1392.18 466.513L1386.46 476.833C1387.08 477.633 1387.93 478.033 1389.01 478.033Z" fill="url(#paint52_linear_167_179)"/>
<path d="M1390.56 504.233H1394.34V505.456H1384.53V504.233H1388.91V491.258L1384.73 493.498L1384.01 492.459L1389.16 489.596H1390.56V504.233Z" fill="url(#paint53_linear_167_179)"/>
<path d="M1389.01 515.749C1390.85 515.749 1392.24 516.449 1393.18 517.85C1394.15 519.235 1394.63 521.251 1394.63 523.899C1394.63 526.546 1394.15 528.57 1393.18 529.97C1392.24 531.371 1390.85 532.071 1389.01 532.071C1387.19 532.071 1385.8 531.371 1384.84 529.97C1383.87 528.57 1383.39 526.546 1383.39 523.899C1383.39 521.267 1383.87 519.251 1384.84 517.85C1385.8 516.449 1387.19 515.749 1389.01 515.749ZM1385.22 523.899C1385.22 525.776 1385.41 527.246 1385.79 528.308L1391.51 518.081C1390.91 517.358 1390.08 516.996 1389.01 516.996C1387.82 516.996 1386.9 517.565 1386.23 518.704C1385.56 519.828 1385.22 521.559 1385.22 523.899ZM1389.01 530.801C1390.21 530.801 1391.15 530.239 1391.82 529.116C1392.49 527.977 1392.82 526.238 1392.82 523.899C1392.82 521.913 1392.61 520.374 1392.18 519.281L1386.46 529.601C1387.08 530.401 1387.93 530.801 1389.01 530.801Z" fill="url(#paint54_linear_167_179)"/>
<path d="M1389.01 542.133C1390.85 542.133 1392.24 542.833 1393.18 544.234C1394.15 545.619 1394.63 547.635 1394.63 550.283C1394.63 552.93 1394.15 554.954 1393.18 556.354C1392.24 557.755 1390.85 558.455 1389.01 558.455C1387.19 558.455 1385.8 557.755 1384.84 556.354C1383.87 554.954 1383.39 552.93 1383.39 550.283C1383.39 547.651 1383.87 545.635 1384.84 544.234C1385.8 542.833 1387.19 542.133 1389.01 542.133ZM1385.22 550.283C1385.22 552.16 1385.41 553.63 1385.79 554.692L1391.51 544.465C1390.91 543.741 1390.08 543.38 1389.01 543.38C1387.82 543.38 1386.9 543.949 1386.23 545.088C1385.56 546.212 1385.22 547.943 1385.22 550.283ZM1389.01 557.185C1390.21 557.185 1391.15 556.623 1391.82 555.5C1392.49 554.361 1392.82 552.622 1392.82 550.283C1392.82 548.297 1392.61 546.758 1392.18 545.665L1386.46 555.985C1387.08 556.785 1387.93 557.185 1389.01 557.185Z" fill="url(#paint55_linear_167_179)"/>
<path d="M1390.56 583.384H1394.34V584.608H1384.53V583.384H1388.91V570.41L1384.73 572.649L1384.01 571.611L1389.16 568.748H1390.56V583.384Z" fill="url(#paint56_linear_167_179)"/>
<path d="M1389.01 594.901C1390.85 594.901 1392.24 595.601 1393.18 597.002C1394.15 598.387 1394.63 600.403 1394.63 603.05C1394.63 605.698 1394.15 607.721 1393.18 609.122C1392.24 610.523 1390.85 611.223 1389.01 611.223C1387.19 611.223 1385.8 610.523 1384.84 609.122C1383.87 607.721 1383.39 605.698 1383.39 603.05C1383.39 600.419 1383.87 598.402 1384.84 597.002C1385.8 595.601 1387.19 594.901 1389.01 594.901ZM1385.22 603.05C1385.22 604.928 1385.41 606.398 1385.79 607.46L1391.51 597.233C1390.91 596.509 1390.08 596.148 1389.01 596.148C1387.82 596.148 1386.9 596.717 1386.23 597.856C1385.56 598.98 1385.22 600.711 1385.22 603.05ZM1389.01 609.953C1390.21 609.953 1391.15 609.391 1391.82 608.268C1392.49 607.129 1392.82 605.39 1392.82 603.05C1392.82 601.065 1392.61 599.526 1392.18 598.433L1386.46 608.753C1387.08 609.553 1387.93 609.953 1389.01 609.953Z" fill="url(#paint57_linear_167_179)"/>
<path d="M1390.56 636.152H1394.34V637.376H1384.53V636.152H1388.91V623.178L1384.73 625.417L1384.01 624.379L1389.16 621.516H1390.56V636.152Z" fill="url(#paint58_linear_167_179)"/>
<path d="M1390.56 662.536H1394.34V663.76H1384.53V662.536H1388.91V649.562L1384.73 651.801L1384.01 650.762L1389.16 647.9H1390.56V662.536Z" fill="url(#paint59_linear_167_179)"/>
<path d="M1436.87 383.829C1438.71 383.829 1440.1 384.53 1441.04 385.93C1442.01 387.315 1442.49 389.332 1442.49 391.979C1442.49 394.626 1442.01 396.65 1441.04 398.05C1440.1 399.451 1438.71 400.151 1436.87 400.151C1435.05 400.151 1433.66 399.451 1432.69 398.05C1431.73 396.65 1431.25 394.626 1431.25 391.979C1431.25 389.347 1431.73 387.331 1432.69 385.93C1433.66 384.53 1435.05 383.829 1436.87 383.829ZM1433.08 391.979C1433.08 393.856 1433.27 395.326 1433.65 396.388L1439.37 386.161C1438.77 385.438 1437.93 385.076 1436.87 385.076C1435.68 385.076 1434.76 385.646 1434.09 386.784C1433.42 387.908 1433.08 389.639 1433.08 391.979ZM1436.87 398.881C1438.07 398.881 1439.01 398.32 1439.68 397.196C1440.35 396.057 1440.68 394.318 1440.68 391.979C1440.68 389.993 1440.47 388.454 1440.04 387.362L1434.32 397.681C1434.94 398.481 1435.79 398.881 1436.87 398.881Z" fill="url(#paint60_linear_167_179)"/>
<path d="M1438.41 425.081H1442.2V426.304H1432.38V425.081H1436.77V412.106L1432.59 414.346L1431.87 413.307L1437.02 410.444H1438.41V425.081Z" fill="url(#paint61_linear_167_179)"/>
<path d="M1436.87 436.597C1438.71 436.597 1440.1 437.298 1441.04 438.698C1442.01 440.083 1442.49 442.099 1442.49 444.747C1442.49 447.394 1442.01 449.418 1441.04 450.818C1440.1 452.219 1438.71 452.919 1436.87 452.919C1435.05 452.919 1433.66 452.219 1432.69 450.818C1431.73 449.418 1431.25 447.394 1431.25 444.747C1431.25 442.115 1431.73 440.099 1432.69 438.698C1433.66 437.298 1435.05 436.597 1436.87 436.597ZM1433.08 444.747C1433.08 446.624 1433.27 448.094 1433.65 449.156L1439.37 438.929C1438.77 438.206 1437.93 437.844 1436.87 437.844C1435.68 437.844 1434.76 438.413 1434.09 439.552C1433.42 440.676 1433.08 442.407 1433.08 444.747ZM1436.87 451.649C1438.07 451.649 1439.01 451.088 1439.68 449.964C1440.35 448.825 1440.68 447.086 1440.68 444.747C1440.68 442.761 1440.47 441.222 1440.04 440.129L1434.32 450.449C1434.94 451.249 1435.79 451.649 1436.87 451.649Z" fill="url(#paint62_linear_167_179)"/>
<path d="M1436.87 462.981C1438.71 462.981 1440.1 463.682 1441.04 465.082C1442.01 466.467 1442.49 468.483 1442.49 471.131C1442.49 473.778 1442.01 475.802 1441.04 477.202C1440.1 478.603 1438.71 479.303 1436.87 479.303C1435.05 479.303 1433.66 478.603 1432.69 477.202C1431.73 475.802 1431.25 473.778 1431.25 471.131C1431.25 468.499 1431.73 466.483 1432.69 465.082C1433.66 463.682 1435.05 462.981 1436.87 462.981ZM1433.08 471.131C1433.08 473.008 1433.27 474.478 1433.65 475.54L1439.37 465.313C1438.77 464.59 1437.93 464.228 1436.87 464.228C1435.68 464.228 1434.76 464.797 1434.09 465.936C1433.42 467.06 1433.08 468.791 1433.08 471.131ZM1436.87 478.033C1438.07 478.033 1439.01 477.472 1439.68 476.348C1440.35 475.209 1440.68 473.47 1440.68 471.131C1440.68 469.145 1440.47 467.606 1440.04 466.513L1434.32 476.833C1434.94 477.633 1435.79 478.033 1436.87 478.033Z" fill="url(#paint63_linear_167_179)"/>
<path d="M1438.41 504.233H1442.2V505.456H1432.38V504.233H1436.77V491.258L1432.59 493.498L1431.87 492.459L1437.02 489.596H1438.41V504.233Z" fill="url(#paint64_linear_167_179)"/>
<path d="M1436.87 515.749C1438.71 515.749 1440.1 516.449 1441.04 517.85C1442.01 519.235 1442.49 521.251 1442.49 523.899C1442.49 526.546 1442.01 528.57 1441.04 529.97C1440.1 531.371 1438.71 532.071 1436.87 532.071C1435.05 532.071 1433.66 531.371 1432.69 529.97C1431.73 528.57 1431.25 526.546 1431.25 523.899C1431.25 521.267 1431.73 519.251 1432.69 517.85C1433.66 516.449 1435.05 515.749 1436.87 515.749ZM1433.08 523.899C1433.08 525.776 1433.27 527.246 1433.65 528.308L1439.37 518.081C1438.77 517.358 1437.93 516.996 1436.87 516.996C1435.68 516.996 1434.76 517.565 1434.09 518.704C1433.42 519.828 1433.08 521.559 1433.08 523.899ZM1436.87 530.801C1438.07 530.801 1439.01 530.239 1439.68 529.116C1440.35 527.977 1440.68 526.238 1440.68 523.899C1440.68 521.913 1440.47 520.374 1440.04 519.281L1434.32 529.601C1434.94 530.401 1435.79 530.801 1436.87 530.801Z" fill="url(#paint65_linear_167_179)"/>
<path d="M1438.41 557.001H1442.2V558.224H1432.38V557.001H1436.77V544.026L1432.59 546.266L1431.87 545.227L1437.02 542.364H1438.41V557.001Z" fill="url(#paint66_linear_167_179)"/>
<path d="M1436.87 568.517C1438.71 568.517 1440.1 569.217 1441.04 570.618C1442.01 572.003 1442.49 574.019 1442.49 576.666C1442.49 579.314 1442.01 581.337 1441.04 582.738C1440.1 584.139 1438.71 584.839 1436.87 584.839C1435.05 584.839 1433.66 584.139 1432.69 582.738C1431.73 581.337 1431.25 579.314 1431.25 576.666C1431.25 574.035 1431.73 572.018 1432.69 570.618C1433.66 569.217 1435.05 568.517 1436.87 568.517ZM1433.08 576.666C1433.08 578.544 1433.27 580.014 1433.65 581.076L1439.37 570.849C1438.77 570.125 1437.93 569.764 1436.87 569.764C1435.68 569.764 1434.76 570.333 1434.09 571.472C1433.42 572.596 1433.08 574.327 1433.08 576.666ZM1436.87 583.569C1438.07 583.569 1439.01 583.007 1439.68 581.884C1440.35 580.745 1440.68 579.006 1440.68 576.666C1440.68 574.681 1440.47 573.142 1440.04 572.049L1434.32 582.369C1434.94 583.169 1435.79 583.569 1436.87 583.569Z" fill="url(#paint67_linear_167_179)"/>
<path d="M1436.87 594.901C1438.71 594.901 1440.1 595.601 1441.04 597.002C1442.01 598.387 1442.49 600.403 1442.49 603.05C1442.49 605.698 1442.01 607.721 1441.04 609.122C1440.1 610.523 1438.71 611.223 1436.87 611.223C1435.05 611.223 1433.66 610.523 1432.69 609.122C1431.73 607.721 1431.25 605.698 1431.25 603.05C1431.25 600.419 1431.73 598.402 1432.69 597.002C1433.66 595.601 1435.05 594.901 1436.87 594.901ZM1433.08 603.05C1433.08 604.928 1433.27 606.398 1433.65 607.46L1439.37 597.233C1438.77 596.509 1437.93 596.148 1436.87 596.148C1435.68 596.148 1434.76 596.717 1434.09 597.856C1433.42 598.98 1433.08 600.711 1433.08 603.05ZM1436.87 609.953C1438.07 609.953 1439.01 609.391 1439.68 608.268C1440.35 607.129 1440.68 605.39 1440.68 603.05C1440.68 601.065 1440.47 599.526 1440.04 598.433L1434.32 608.753C1434.94 609.553 1435.79 609.953 1436.87 609.953Z" fill="url(#paint68_linear_167_179)"/>
<path d="M1438.41 636.152H1442.2V637.376H1432.38V636.152H1436.77V623.178L1432.59 625.417L1431.87 624.379L1437.02 621.516H1438.41V636.152Z" fill="url(#paint69_linear_167_179)"/>
<path d="M1436.87 647.669C1438.71 647.669 1440.1 648.369 1441.04 649.77C1442.01 651.155 1442.49 653.171 1442.49 655.818C1442.49 658.465 1442.01 660.489 1441.04 661.89C1440.1 663.29 1438.71 663.991 1436.87 663.991C1435.05 663.991 1433.66 663.29 1432.69 661.89C1431.73 660.489 1431.25 658.465 1431.25 655.818C1431.25 653.186 1431.73 651.17 1432.69 649.77C1433.66 648.369 1435.05 647.669 1436.87 647.669ZM1433.08 655.818C1433.08 657.696 1433.27 659.166 1433.65 660.228L1439.37 650.001C1438.77 649.277 1437.93 648.916 1436.87 648.916C1435.68 648.916 1434.76 649.485 1434.09 650.624C1433.42 651.747 1433.08 653.479 1433.08 655.818ZM1436.87 662.721C1438.07 662.721 1439.01 662.159 1439.68 661.036C1440.35 659.897 1440.68 658.158 1440.68 655.818C1440.68 653.833 1440.47 652.294 1440.04 651.201L1434.32 661.521C1434.94 662.321 1435.79 662.721 1436.87 662.721Z" fill="url(#paint70_linear_167_179)"/>
<path d="M1438.41 688.92H1442.2V690.144H1432.38V688.92H1436.77V675.946L1432.59 678.185L1431.87 677.146L1437.02 674.284H1438.41V688.92Z" fill="url(#paint71_linear_167_179)"/>
<path d="M1438.41 715.304H1442.2V716.528H1432.38V715.304H1436.77V702.33L1432.59 704.569L1431.87 703.53L1437.02 700.668H1438.41V715.304Z" fill="url(#paint72_linear_167_179)"/>
<path d="M1365.08 410.213C1366.92 410.213 1368.31 410.914 1369.26 412.314C1370.22 413.699 1370.7 415.716 1370.7 418.363C1370.7 421.01 1370.22 423.034 1369.26 424.434C1368.31 425.835 1366.92 426.535 1365.08 426.535C1363.26 426.535 1361.87 425.835 1360.91 424.434C1359.94 423.034 1359.46 421.01 1359.46 418.363C1359.46 415.731 1359.94 413.715 1360.91 412.314C1361.87 410.914 1363.26 410.213 1365.08 410.213ZM1361.29 418.363C1361.29 420.24 1361.48 421.71 1361.86 422.772L1367.58 412.545C1366.98 411.822 1366.15 411.46 1365.08 411.46C1363.9 411.46 1362.97 412.029 1362.3 413.168C1361.63 414.292 1361.29 416.023 1361.29 418.363ZM1365.08 425.265C1366.28 425.265 1367.22 424.704 1367.89 423.58C1368.56 422.441 1368.89 420.702 1368.89 418.363C1368.89 416.377 1368.68 414.838 1368.25 413.746L1362.53 424.065C1363.15 424.865 1364 425.265 1365.08 425.265Z" fill="url(#paint73_linear_167_179)"/>
<path d="M1365.08 436.597C1366.92 436.597 1368.31 437.298 1369.26 438.698C1370.22 440.083 1370.7 442.099 1370.7 444.747C1370.7 447.394 1370.22 449.418 1369.26 450.818C1368.31 452.219 1366.92 452.919 1365.08 452.919C1363.26 452.919 1361.87 452.219 1360.91 450.818C1359.94 449.418 1359.46 447.394 1359.46 444.747C1359.46 442.115 1359.94 440.099 1360.91 438.698C1361.87 437.298 1363.26 436.597 1365.08 436.597ZM1361.29 444.747C1361.29 446.624 1361.48 448.094 1361.86 449.156L1367.58 438.929C1366.98 438.206 1366.15 437.844 1365.08 437.844C1363.9 437.844 1362.97 438.413 1362.3 439.552C1361.63 440.676 1361.29 442.407 1361.29 444.747ZM1365.08 451.649C1366.28 451.649 1367.22 451.088 1367.89 449.964C1368.56 448.825 1368.89 447.086 1368.89 444.747C1368.89 442.761 1368.68 441.222 1368.25 440.129L1362.53 450.449C1363.15 451.249 1364 451.649 1365.08 451.649Z" fill="url(#paint74_linear_167_179)"/>
<path d="M1366.63 477.849H1370.42V479.072H1360.6V477.849H1364.98V464.874L1360.8 467.114L1360.08 466.075L1365.24 463.212H1366.63V477.849Z" fill="url(#paint75_linear_167_179)"/>
<path d="M1365.08 489.365C1366.92 489.365 1368.31 490.066 1369.26 491.466C1370.22 492.851 1370.7 494.867 1370.7 497.515C1370.7 500.162 1370.22 502.186 1369.26 503.586C1368.31 504.987 1366.92 505.687 1365.08 505.687C1363.26 505.687 1361.87 504.987 1360.91 503.586C1359.94 502.186 1359.46 500.162 1359.46 497.515C1359.46 494.883 1359.94 492.867 1360.91 491.466C1361.87 490.066 1363.26 489.365 1365.08 489.365ZM1361.29 497.515C1361.29 499.392 1361.48 500.862 1361.86 501.924L1367.58 491.697C1366.98 490.974 1366.15 490.612 1365.08 490.612C1363.9 490.612 1362.97 491.181 1362.3 492.32C1361.63 493.444 1361.29 495.175 1361.29 497.515ZM1365.08 504.417C1366.28 504.417 1367.22 503.856 1367.89 502.732C1368.56 501.593 1368.89 499.854 1368.89 497.515C1368.89 495.529 1368.68 493.99 1368.25 492.897L1362.53 503.217C1363.15 504.017 1364 504.417 1365.08 504.417Z" fill="url(#paint76_linear_167_179)"/>
<path d="M1366.63 530.617H1370.42V531.84H1360.6V530.617H1364.98V517.642L1360.8 519.882L1360.08 518.843L1365.24 515.98H1366.63V530.617Z" fill="url(#paint77_linear_167_179)"/>
<path d="M1366.63 557.001H1370.42V558.224H1360.6V557.001H1364.98V544.026L1360.8 546.266L1360.08 545.227L1365.24 542.364H1366.63V557.001Z" fill="url(#paint78_linear_167_179)"/>
<path d="M1414.49 372.313H1418.27V373.536H1408.46V372.313H1412.84V359.339L1408.66 361.578L1407.94 360.539L1413.09 357.676H1414.49V372.313Z" fill="url(#paint79_linear_167_179)"/>
<path d="M1412.94 383.829C1414.78 383.829 1416.17 384.53 1417.11 385.93C1418.08 387.315 1418.56 389.332 1418.56 391.979C1418.56 394.626 1418.08 396.65 1417.11 398.05C1416.17 399.451 1414.78 400.151 1412.94 400.151C1411.12 400.151 1409.73 399.451 1408.76 398.05C1407.8 396.65 1407.32 394.626 1407.32 391.979C1407.32 389.347 1407.8 387.331 1408.76 385.93C1409.73 384.53 1411.12 383.829 1412.94 383.829ZM1409.15 391.979C1409.15 393.856 1409.34 395.326 1409.72 396.388L1415.44 386.161C1414.84 385.438 1414 385.076 1412.94 385.076C1411.75 385.076 1410.83 385.646 1410.16 386.784C1409.49 387.908 1409.15 389.639 1409.15 391.979ZM1412.94 398.881C1414.14 398.881 1415.08 398.32 1415.75 397.196C1416.42 396.057 1416.75 394.318 1416.75 391.979C1416.75 389.993 1416.54 388.454 1416.11 387.362L1410.39 397.681C1411.01 398.481 1411.86 398.881 1412.94 398.881Z" fill="url(#paint80_linear_167_179)"/>
<path d="M1414.49 425.081H1418.27V426.304H1408.46V425.081H1412.84V412.106L1408.66 414.346L1407.94 413.307L1413.09 410.444H1414.49V425.081Z" fill="url(#paint81_linear_167_179)"/>
<path d="M1414.49 451.465H1418.27V452.688H1408.46V451.465H1412.84V438.49L1408.66 440.73L1407.94 439.691L1413.09 436.828H1414.49V451.465Z" fill="url(#paint82_linear_167_179)"/>
<path d="M1412.94 462.981C1414.78 462.981 1416.17 463.682 1417.11 465.082C1418.08 466.467 1418.56 468.483 1418.56 471.131C1418.56 473.778 1418.08 475.802 1417.11 477.202C1416.17 478.603 1414.78 479.303 1412.94 479.303C1411.12 479.303 1409.73 478.603 1408.76 477.202C1407.8 475.802 1407.32 473.778 1407.32 471.131C1407.32 468.499 1407.8 466.483 1408.76 465.082C1409.73 463.682 1411.12 462.981 1412.94 462.981ZM1409.15 471.131C1409.15 473.008 1409.34 474.478 1409.72 475.54L1415.44 465.313C1414.84 464.59 1414 464.228 1412.94 464.228C1411.75 464.228 1410.83 464.797 1410.16 465.936C1409.49 467.06 1409.15 468.791 1409.15 471.131ZM1412.94 478.033C1414.14 478.033 1415.08 477.472 1415.75 476.348C1416.42 475.209 1416.75 473.47 1416.75 471.131C1416.75 469.145 1416.54 467.606 1416.11 466.513L1410.39 476.833C1411.01 477.633 1411.86 478.033 1412.94 478.033Z" fill="url(#paint83_linear_167_179)"/>
<path d="M1414.49 504.233H1418.27V505.456H1408.46V504.233H1412.84V491.258L1408.66 493.498L1407.94 492.459L1413.09 489.596H1414.49V504.233Z" fill="url(#paint84_linear_167_179)"/>
<path d="M1414.49 530.617H1418.27V531.84H1408.46V530.617H1412.84V517.642L1408.66 519.882L1407.94 518.843L1413.09 515.98H1414.49V530.617Z" fill="url(#paint85_linear_167_179)"/>
<path d="M1412.94 542.133C1414.78 542.133 1416.17 542.833 1417.11 544.234C1418.08 545.619 1418.56 547.635 1418.56 550.283C1418.56 552.93 1418.08 554.954 1417.11 556.354C1416.17 557.755 1414.78 558.455 1412.94 558.455C1411.12 558.455 1409.73 557.755 1408.76 556.354C1407.8 554.954 1407.32 552.93 1407.32 550.283C1407.32 547.651 1407.8 545.635 1408.76 544.234C1409.73 542.833 1411.12 542.133 1412.94 542.133ZM1409.15 550.283C1409.15 552.16 1409.34 553.63 1409.72 554.692L1415.44 544.465C1414.84 543.741 1414 543.38 1412.94 543.38C1411.75 543.38 1410.83 543.949 1410.16 545.088C1409.49 546.212 1409.15 547.943 1409.15 550.283ZM1412.94 557.185C1414.14 557.185 1415.08 556.623 1415.75 555.5C1416.42 554.361 1416.75 552.622 1416.75 550.283C1416.75 548.297 1416.54 546.758 1416.11 545.665L1410.39 555.985C1411.01 556.785 1411.86 557.185 1412.94 557.185Z" fill="url(#paint86_linear_167_179)"/>
<path d="M1414.49 583.384H1418.27V584.608H1408.46V583.384H1412.84V570.41L1408.66 572.649L1407.94 571.611L1413.09 568.748H1414.49V583.384Z" fill="url(#paint87_linear_167_179)"/>
<path d="M1412.94 594.901C1414.78 594.901 1416.17 595.601 1417.11 597.002C1418.08 598.387 1418.56 600.403 1418.56 603.05C1418.56 605.698 1418.08 607.721 1417.11 609.122C1416.17 610.523 1414.78 611.223 1412.94 611.223C1411.12 611.223 1409.73 610.523 1408.76 609.122C1407.8 607.721 1407.32 605.698 1407.32 603.05C1407.32 600.419 1407.8 598.402 1408.76 597.002C1409.73 595.601 1411.12 594.901 1412.94 594.901ZM1409.15 603.05C1409.15 604.928 1409.34 606.398 1409.72 607.46L1415.44 597.233C1414.84 596.509 1414 596.148 1412.94 596.148C1411.75 596.148 1410.83 596.717 1410.16 597.856C1409.49 598.98 1409.15 600.711 1409.15 603.05ZM1412.94 609.953C1414.14 609.953 1415.08 609.391 1415.75 608.268C1416.42 607.129 1416.75 605.39 1416.75 603.05C1416.75 601.065 1416.54 599.526 1416.11 598.433L1410.39 608.753C1411.01 609.553 1411.86 609.953 1412.94 609.953Z" fill="url(#paint88_linear_167_179)"/>
<path d="M1460.8 357.445C1462.64 357.445 1464.03 358.146 1464.97 359.546C1465.93 360.931 1466.42 362.948 1466.42 365.595C1466.42 368.242 1465.93 370.266 1464.97 371.666C1464.03 373.067 1462.64 373.767 1460.8 373.767C1458.98 373.767 1457.59 373.067 1456.62 371.666C1455.66 370.266 1455.18 368.242 1455.18 365.595C1455.18 362.963 1455.66 360.947 1456.62 359.546C1457.59 358.146 1458.98 357.445 1460.8 357.445ZM1457.01 365.595C1457.01 367.472 1457.2 368.942 1457.58 370.004L1463.3 359.777C1462.7 359.054 1461.86 358.692 1460.8 358.692C1459.61 358.692 1458.68 359.262 1458.01 360.4C1457.34 361.524 1457.01 363.255 1457.01 365.595ZM1460.8 372.498C1462 372.498 1462.94 371.936 1463.61 370.812C1464.28 369.673 1464.61 367.934 1464.61 365.595C1464.61 363.609 1464.4 362.07 1463.97 360.978L1458.25 371.297C1458.87 372.097 1459.72 372.498 1460.8 372.498Z" fill="url(#paint89_linear_167_179)"/>
<path d="M1462.34 398.697H1466.13V399.92H1456.31V398.697H1460.69V385.722L1456.52 387.962L1455.8 386.923L1460.95 384.06H1462.34V398.697Z" fill="url(#paint90_linear_167_179)"/>
<path d="M1462.34 425.081H1466.13V426.304H1456.31V425.081H1460.69V412.106L1456.52 414.346L1455.8 413.307L1460.95 410.444H1462.34V425.081Z" fill="url(#paint91_linear_167_179)"/>
<path d="M1460.8 436.597C1462.64 436.597 1464.03 437.298 1464.97 438.698C1465.93 440.083 1466.42 442.099 1466.42 444.747C1466.42 447.394 1465.93 449.418 1464.97 450.818C1464.03 452.219 1462.64 452.919 1460.8 452.919C1458.98 452.919 1457.59 452.219 1456.62 450.818C1455.66 449.418 1455.18 447.394 1455.18 444.747C1455.18 442.115 1455.66 440.099 1456.62 438.698C1457.59 437.298 1458.98 436.597 1460.8 436.597ZM1457.01 444.747C1457.01 446.624 1457.2 448.094 1457.58 449.156L1463.3 438.929C1462.7 438.206 1461.86 437.844 1460.8 437.844C1459.61 437.844 1458.68 438.413 1458.01 439.552C1457.34 440.676 1457.01 442.407 1457.01 444.747ZM1460.8 451.649C1462 451.649 1462.94 451.088 1463.61 449.964C1464.28 448.825 1464.61 447.086 1464.61 444.747C1464.61 442.761 1464.4 441.222 1463.97 440.129L1458.25 450.449C1458.87 451.249 1459.72 451.649 1460.8 451.649Z" fill="url(#paint92_linear_167_179)"/>
<path d="M1460.8 462.981C1462.64 462.981 1464.03 463.682 1464.97 465.082C1465.93 466.467 1466.42 468.483 1466.42 471.131C1466.42 473.778 1465.93 475.802 1464.97 477.202C1464.03 478.603 1462.64 479.303 1460.8 479.303C1458.98 479.303 1457.59 478.603 1456.62 477.202C1455.66 475.802 1455.18 473.778 1455.18 471.131C1455.18 468.499 1455.66 466.483 1456.62 465.082C1457.59 463.682 1458.98 462.981 1460.8 462.981ZM1457.01 471.131C1457.01 473.008 1457.2 474.478 1457.58 475.54L1463.3 465.313C1462.7 464.59 1461.86 464.228 1460.8 464.228C1459.61 464.228 1458.68 464.797 1458.01 465.936C1457.34 467.06 1457.01 468.791 1457.01 471.131ZM1460.8 478.033C1462 478.033 1462.94 477.472 1463.61 476.348C1464.28 475.209 1464.61 473.47 1464.61 471.131C1464.61 469.145 1464.4 467.606 1463.97 466.513L1458.25 476.833C1458.87 477.633 1459.72 478.033 1460.8 478.033Z" fill="url(#paint93_linear_167_179)"/>
</g>
</g>
<defs>
<filter id="filter0_f_167_179" x="-400.19" y="-400.19" width="2528.38" height="1610.67" filterUnits="userSpaceOnUse" color-interpolation-filters="sRGB">
<feFlood flood-opacity="0" result="BackgroundImageFix"/>
<feBlend mode="normal" in="SourceGraphic" in2="BackgroundImageFix" result="shape"/>
<feGaussianBlur stdDeviation="200.095" result="effect1_foregroundBlur_167_179"/>
</filter>
<linearGradient id="paint0_linear_167_179" x1="271.249" y1="678.328" x2="271.249" y2="1038.77" gradientUnits="userSpaceOnUse">
<stop stop-color="#F7DD43"/>
<stop offset="1" stop-color="#F7DD43" stop-opacity="0"/>
</linearGradient>
<linearGradient id="paint1_linear_167_179" x1="271.249" y1="678.328" x2="271.249" y2="1038.77" gradientUnits="userSpaceOnUse">
<stop stop-color="#F7DD43"/>
<stop offset="1" stop-color="#F7DD43" stop-opacity="0"/>
</linearGradient>
<linearGradient id="paint2_linear_167_179" x1="271.249" y1="678.328" x2="271.249" y2="1038.77" gradientUnits="userSpaceOnUse">
<stop stop-color="#F7DD43"/>
<stop offset="1" stop-color="#F7DD43" stop-opacity="0"/>
</linearGradient>
<linearGradient id="paint3_linear_167_179" x1="271.249" y1="678.328" x2="271.249" y2="1038.77" gradientUnits="userSpaceOnUse">
<stop stop-color="#F7DD43"/>
<stop offset="1" stop-color="#F7DD43" stop-opacity="0"/>
</linearGradient>
<linearGradient id="paint4_linear_167_179" x1="271.249" y1="678.328" x2="271.249" y2="1038.77" gradientUnits="userSpaceOnUse">
<stop stop-color="#F7DD43"/>
<stop offset="1" stop-color="#F7DD43" stop-opacity="0"/>
</linearGradient>
<linearGradient id="paint5_linear_167_179" x1="271.249" y1="678.328" x2="271.249" y2="1038.77" gradientUnits="userSpaceOnUse">
<stop stop-color="#F7DD43"/>
<stop offset="1" stop-color="#F7DD43" stop-opacity="0"/>
</linearGradient>
<linearGradient id="paint6_linear_167_179" x1="271.249" y1="678.328" x2="271.249" y2="1038.77" gradientUnits="userSpaceOnUse">
<stop stop-color="#F7DD43"/>
<stop offset="1" stop-color="#F7DD43" stop-opacity="0"/>
</linearGradient>
<linearGradient id="paint7_linear_167_179" x1="271.249" y1="678.328" x2="271.249" y2="1038.77" gradientUnits="userSpaceOnUse">
<stop stop-color="#F7DD43"/>
<stop offset="1" stop-color="#F7DD43" stop-opacity="0"/>
</linearGradient>
<linearGradient id="paint8_linear_167_179" x1="271.249" y1="678.328" x2="271.249" y2="1038.77" gradientUnits="userSpaceOnUse">
<stop stop-color="#F7DD43"/>
<stop offset="1" stop-color="#F7DD43" stop-opacity="0"/>
</linearGradient>
<linearGradient id="paint9_linear_167_179" x1="271.249" y1="678.328" x2="271.249" y2="1038.77" gradientUnits="userSpaceOnUse">
<stop stop-color="#F7DD43"/>
<stop offset="1" stop-color="#F7DD43" stop-opacity="0"/>
</linearGradient>
<linearGradient id="paint10_linear_167_179" x1="271.249" y1="678.328" x2="271.249" y2="1038.77" gradientUnits="userSpaceOnUse">
<stop stop-color="#F7DD43"/>
<stop offset="1" stop-color="#F7DD43" stop-opacity="0"/>
</linearGradient>
<linearGradient id="paint11_linear_167_179" x1="271.249" y1="678.328" x2="271.249" y2="1038.77" gradientUnits="userSpaceOnUse">
<stop stop-color="#F7DD43"/>
<stop offset="1" stop-color="#F7DD43" stop-opacity="0"/>
</linearGradient>
<linearGradient id="paint12_linear_167_179" x1="271.249" y1="678.328" x2="271.249" y2="1038.77" gradientUnits="userSpaceOnUse">
<stop stop-color="#F7DD43"/>
<stop offset="1" stop-color="#F7DD43" stop-opacity="0"/>
</linearGradient>
<linearGradient id="paint13_linear_167_179" x1="271.249" y1="678.328" x2="271.249" y2="1038.77" gradientUnits="userSpaceOnUse">
<stop stop-color="#F7DD43"/>
<stop offset="1" stop-color="#F7DD43" stop-opacity="0"/>
</linearGradient>
<linearGradient id="paint14_linear_167_179" x1="271.249" y1="678.328" x2="271.249" y2="1038.77" gradientUnits="userSpaceOnUse">
<stop stop-color="#F7DD43"/>
<stop offset="1" stop-color="#F7DD43" stop-opacity="0"/>
</linearGradient>
<linearGradient id="paint15_linear_167_179" x1="271.249" y1="678.328" x2="271.249" y2="1038.77" gradientUnits="userSpaceOnUse">
<stop stop-color="#F7DD43"/>
<stop offset="1" stop-color="#F7DD43" stop-opacity="0"/>
</linearGradient>
<linearGradient id="paint16_linear_167_179" x1="271.249" y1="678.328" x2="271.249" y2="1038.77" gradientUnits="userSpaceOnUse">
<stop stop-color="#F7DD43"/>
<stop offset="1" stop-color="#F7DD43" stop-opacity="0"/>
</linearGradient>
<linearGradient id="paint17_linear_167_179" x1="271.249" y1="678.328" x2="271.249" y2="1038.77" gradientUnits="userSpaceOnUse">
<stop stop-color="#F7DD43"/>
<stop offset="1" stop-color="#F7DD43" stop-opacity="0"/>
</linearGradient>
<linearGradient id="paint18_linear_167_179" x1="271.249" y1="678.328" x2="271.249" y2="1038.77" gradientUnits="userSpaceOnUse">
<stop stop-color="#F7DD43"/>
<stop offset="1" stop-color="#F7DD43" stop-opacity="0"/>
</linearGradient>
<linearGradient id="paint19_linear_167_179" x1="271.249" y1="678.328" x2="271.249" y2="1038.77" gradientUnits="userSpaceOnUse">
<stop stop-color="#F7DD43"/>
<stop offset="1" stop-color="#F7DD43" stop-opacity="0"/>
</linearGradient>
<linearGradient id="paint20_linear_167_179" x1="271.249" y1="678.328" x2="271.249" y2="1038.77" gradientUnits="userSpaceOnUse">
<stop stop-color="#F7DD43"/>
<stop offset="1" stop-color="#F7DD43" stop-opacity="0"/>
</linearGradient>
<linearGradient id="paint21_linear_167_179" x1="271.249" y1="678.328" x2="271.249" y2="1038.77" gradientUnits="userSpaceOnUse">
<stop stop-color="#F7DD43"/>
<stop offset="1" stop-color="#F7DD43" stop-opacity="0"/>
</linearGradient>
<linearGradient id="paint22_linear_167_179" x1="271.249" y1="678.328" x2="271.249" y2="1038.77" gradientUnits="userSpaceOnUse">
<stop stop-color="#F7DD43"/>
<stop offset="1" stop-color="#F7DD43" stop-opacity="0"/>
</linearGradient>
<linearGradient id="paint23_linear_167_179" x1="271.249" y1="678.328" x2="271.249" y2="1038.77" gradientUnits="userSpaceOnUse">
<stop stop-color="#F7DD43"/>
<stop offset="1" stop-color="#F7DD43" stop-opacity="0"/>
</linearGradient>
<linearGradient id="paint24_linear_167_179" x1="271.249" y1="678.328" x2="271.249" y2="1038.77" gradientUnits="userSpaceOnUse">
<stop stop-color="#F7DD43"/>
<stop offset="1" stop-color="#F7DD43" stop-opacity="0"/>
</linearGradient>
<linearGradient id="paint25_linear_167_179" x1="271.249" y1="678.328" x2="271.249" y2="1038.77" gradientUnits="userSpaceOnUse">
<stop stop-color="#F7DD43"/>
<stop offset="1" stop-color="#F7DD43" stop-opacity="0"/>
</linearGradient>
<linearGradient id="paint26_linear_167_179" x1="271.249" y1="678.328" x2="271.249" y2="1038.77" gradientUnits="userSpaceOnUse">
<stop stop-color="#F7DD43"/>
<stop offset="1" stop-color="#F7DD43" stop-opacity="0"/>
</linearGradient>
<linearGradient id="paint27_linear_167_179" x1="271.249" y1="678.328" x2="271.249" y2="1038.77" gradientUnits="userSpaceOnUse">
<stop stop-color="#F7DD43"/>
<stop offset="1" stop-color="#F7DD43" stop-opacity="0"/>
</linearGradient>
<linearGradient id="paint28_linear_167_179" x1="271.249" y1="678.328" x2="271.249" y2="1038.77" gradientUnits="userSpaceOnUse">
<stop stop-color="#F7DD43"/>
<stop offset="1" stop-color="#F7DD43" stop-opacity="0"/>
</linearGradient>
<linearGradient id="paint29_linear_167_179" x1="271.249" y1="678.328" x2="271.249" y2="1038.77" gradientUnits="userSpaceOnUse">
<stop stop-color="#F7DD43"/>
<stop offset="1" stop-color="#F7DD43" stop-opacity="0"/>
</linearGradient>
<linearGradient id="paint30_linear_167_179" x1="271.249" y1="678.328" x2="271.249" y2="1038.77" gradientUnits="userSpaceOnUse">
<stop stop-color="#F7DD43"/>
<stop offset="1" stop-color="#F7DD43" stop-opacity="0"/>
</linearGradient>
<linearGradient id="paint31_linear_167_179" x1="271.249" y1="678.328" x2="271.249" y2="1038.77" gradientUnits="userSpaceOnUse">
<stop stop-color="#F7DD43"/>
<stop offset="1" stop-color="#F7DD43" stop-opacity="0"/>
</linearGradient>
<linearGradient id="paint32_linear_167_179" x1="271.249" y1="678.328" x2="271.249" y2="1038.77" gradientUnits="userSpaceOnUse">
<stop stop-color="#F7DD43"/>
<stop offset="1" stop-color="#F7DD43" stop-opacity="0"/>
</linearGradient>
<linearGradient id="paint33_linear_167_179" x1="271.249" y1="678.328" x2="271.249" y2="1038.77" gradientUnits="userSpaceOnUse">
<stop stop-color="#F7DD43"/>
<stop offset="1" stop-color="#F7DD43" stop-opacity="0"/>
</linearGradient>
<linearGradient id="paint34_linear_167_179" x1="271.249" y1="678.328" x2="271.249" y2="1038.77" gradientUnits="userSpaceOnUse">
<stop stop-color="#F7DD43"/>
<stop offset="1" stop-color="#F7DD43" stop-opacity="0"/>
</linearGradient>
<linearGradient id="paint35_linear_167_179" x1="271.249" y1="678.328" x2="271.249" y2="1038.77" gradientUnits="userSpaceOnUse">
<stop stop-color="#F7DD43"/>
<stop offset="1" stop-color="#F7DD43" stop-opacity="0"/>
</linearGradient>
<linearGradient id="paint36_linear_167_179" x1="271.249" y1="678.328" x2="271.249" y2="1038.77" gradientUnits="userSpaceOnUse">
<stop stop-color="#F7DD43"/>
<stop offset="1" stop-color="#F7DD43" stop-opacity="0"/>
</linearGradient>
<linearGradient id="paint37_linear_167_179" x1="271.249" y1="678.328" x2="271.249" y2="1038.77" gradientUnits="userSpaceOnUse">
<stop stop-color="#F7DD43"/>
<stop offset="1" stop-color="#F7DD43" stop-opacity="0"/>
</linearGradient>
<linearGradient id="paint38_linear_167_179" x1="271.249" y1="678.328" x2="271.249" y2="1038.77" gradientUnits="userSpaceOnUse">
<stop stop-color="#F7DD43"/>
<stop offset="1" stop-color="#F7DD43" stop-opacity="0"/>
</linearGradient>
<linearGradient id="paint39_linear_167_179" x1="271.249" y1="678.328" x2="271.249" y2="1038.77" gradientUnits="userSpaceOnUse">
<stop stop-color="#F7DD43"/>
<stop offset="1" stop-color="#F7DD43" stop-opacity="0"/>
</linearGradient>
<linearGradient id="paint40_linear_167_179" x1="271.249" y1="678.328" x2="271.249" y2="1038.77" gradientUnits="userSpaceOnUse">
<stop stop-color="#F7DD43"/>
<stop offset="1" stop-color="#F7DD43" stop-opacity="0"/>
</linearGradient>
<linearGradient id="paint41_linear_167_179" x1="271.249" y1="678.328" x2="271.249" y2="1038.77" gradientUnits="userSpaceOnUse">
<stop stop-color="#F7DD43"/>
<stop offset="1" stop-color="#F7DD43" stop-opacity="0"/>
</linearGradient>
<linearGradient id="paint42_linear_167_179" x1="271.249" y1="678.328" x2="271.249" y2="1038.77" gradientUnits="userSpaceOnUse">
<stop stop-color="#F7DD43"/>
<stop offset="1" stop-color="#F7DD43" stop-opacity="0"/>
</linearGradient>
<linearGradient id="paint43_linear_167_179" x1="271.249" y1="678.328" x2="271.249" y2="1038.77" gradientUnits="userSpaceOnUse">
<stop stop-color="#F7DD43"/>
<stop offset="1" stop-color="#F7DD43" stop-opacity="0"/>
</linearGradient>
<linearGradient id="paint44_linear_167_179" x1="271.249" y1="678.328" x2="271.249" y2="1038.77" gradientUnits="userSpaceOnUse">
<stop stop-color="#F7DD43"/>
<stop offset="1" stop-color="#F7DD43" stop-opacity="0"/>
</linearGradient>
<linearGradient id="paint45_linear_167_179" x1="271.249" y1="678.328" x2="271.249" y2="1038.77" gradientUnits="userSpaceOnUse">
<stop stop-color="#F7DD43"/>
<stop offset="1" stop-color="#F7DD43" stop-opacity="0"/>
</linearGradient>
<linearGradient id="paint46_linear_167_179" x1="271.249" y1="678.328" x2="271.249" y2="1038.77" gradientUnits="userSpaceOnUse">
<stop stop-color="#F7DD43"/>
<stop offset="1" stop-color="#F7DD43" stop-opacity="0"/>
</linearGradient>
<linearGradient id="paint47_linear_167_179" x1="1412.94" y1="331.062" x2="1412.94" y2="676.96" gradientUnits="userSpaceOnUse">
<stop stop-color="#F7DD43"/>
<stop offset="1" stop-color="#F7DD43" stop-opacity="0"/>
</linearGradient>
<linearGradient id="paint48_linear_167_179" x1="1412.94" y1="331.062" x2="1412.94" y2="676.96" gradientUnits="userSpaceOnUse">
<stop stop-color="#F7DD43"/>
<stop offset="1" stop-color="#F7DD43" stop-opacity="0"/>
</linearGradient>
<linearGradient id="paint49_linear_167_179" x1="1412.94" y1="331.062" x2="1412.94" y2="676.96" gradientUnits="userSpaceOnUse">
<stop stop-color="#F7DD43"/>
<stop offset="1" stop-color="#F7DD43" stop-opacity="0"/>
</linearGradient>
<linearGradient id="paint50_linear_167_179" x1="1412.94" y1="331.062" x2="1412.94" y2="676.96" gradientUnits="userSpaceOnUse">
<stop stop-color="#F7DD43"/>
<stop offset="1" stop-color="#F7DD43" stop-opacity="0"/>
</linearGradient>
<linearGradient id="paint51_linear_167_179" x1="1412.94" y1="331.062" x2="1412.94" y2="676.96" gradientUnits="userSpaceOnUse">
<stop stop-color="#F7DD43"/>
<stop offset="1" stop-color="#F7DD43" stop-opacity="0"/>
</linearGradient>
<linearGradient id="paint52_linear_167_179" x1="1412.94" y1="331.062" x2="1412.94" y2="676.96" gradientUnits="userSpaceOnUse">
<stop stop-color="#F7DD43"/>
<stop offset="1" stop-color="#F7DD43" stop-opacity="0"/>
</linearGradient>
<linearGradient id="paint53_linear_167_179" x1="1412.94" y1="331.062" x2="1412.94" y2="676.96" gradientUnits="userSpaceOnUse">
<stop stop-color="#F7DD43"/>
<stop offset="1" stop-color="#F7DD43" stop-opacity="0"/>
</linearGradient>
<linearGradient id="paint54_linear_167_179" x1="1412.94" y1="331.062" x2="1412.94" y2="676.96" gradientUnits="userSpaceOnUse">
<stop stop-color="#F7DD43"/>
<stop offset="1" stop-color="#F7DD43" stop-opacity="0"/>
</linearGradient>
<linearGradient id="paint55_linear_167_179" x1="1412.94" y1="331.062" x2="1412.94" y2="676.96" gradientUnits="userSpaceOnUse">
<stop stop-color="#F7DD43"/>
<stop offset="1" stop-color="#F7DD43" stop-opacity="0"/>
</linearGradient>
<linearGradient id="paint56_linear_167_179" x1="1412.94" y1="331.062" x2="1412.94" y2="676.96" gradientUnits="userSpaceOnUse">
<stop stop-color="#F7DD43"/>
<stop offset="1" stop-color="#F7DD43" stop-opacity="0"/>
</linearGradient>
<linearGradient id="paint57_linear_167_179" x1="1412.94" y1="331.062" x2="1412.94" y2="676.96" gradientUnits="userSpaceOnUse">
<stop stop-color="#F7DD43"/>
<stop offset="1" stop-color="#F7DD43" stop-opacity="0"/>
</linearGradient>
<linearGradient id="paint58_linear_167_179" x1="1412.94" y1="331.062" x2="1412.94" y2="676.96" gradientUnits="userSpaceOnUse">
<stop stop-color="#F7DD43"/>
<stop offset="1" stop-color="#F7DD43" stop-opacity="0"/>
</linearGradient>
<linearGradient id="paint59_linear_167_179" x1="1412.94" y1="331.062" x2="1412.94" y2="676.96" gradientUnits="userSpaceOnUse">
<stop stop-color="#F7DD43"/>
<stop offset="1" stop-color="#F7DD43" stop-opacity="0"/>
</linearGradient>
<linearGradient id="paint60_linear_167_179" x1="1412.94" y1="331.062" x2="1412.94" y2="676.96" gradientUnits="userSpaceOnUse">
<stop stop-color="#F7DD43"/>
<stop offset="1" stop-color="#F7DD43" stop-opacity="0"/>
</linearGradient>
<linearGradient id="paint61_linear_167_179" x1="1412.94" y1="331.062" x2="1412.94" y2="676.96" gradientUnits="userSpaceOnUse">
<stop stop-color="#F7DD43"/>
<stop offset="1" stop-color="#F7DD43" stop-opacity="0"/>
</linearGradient>
<linearGradient id="paint62_linear_167_179" x1="1412.94" y1="331.062" x2="1412.94" y2="676.96" gradientUnits="userSpaceOnUse">
<stop stop-color="#F7DD43"/>
<stop offset="1" stop-color="#F7DD43" stop-opacity="0"/>
</linearGradient>
<linearGradient id="paint63_linear_167_179" x1="1412.94" y1="331.062" x2="1412.94" y2="676.96" gradientUnits="userSpaceOnUse">
<stop stop-color="#F7DD43"/>
<stop offset="1" stop-color="#F7DD43" stop-opacity="0"/>
</linearGradient>
<linearGradient id="paint64_linear_167_179" x1="1412.94" y1="331.062" x2="1412.94" y2="676.96" gradientUnits="userSpaceOnUse">
<stop stop-color="#F7DD43"/>
<stop offset="1" stop-color="#F7DD43" stop-opacity="0"/>
</linearGradient>
<linearGradient id="paint65_linear_167_179" x1="1412.94" y1="331.062" x2="1412.94" y2="676.96" gradientUnits="userSpaceOnUse">
<stop stop-color="#F7DD43"/>
<stop offset="1" stop-color="#F7DD43" stop-opacity="0"/>
</linearGradient>
<linearGradient id="paint66_linear_167_179" x1="1412.94" y1="331.062" x2="1412.94" y2="676.96" gradientUnits="userSpaceOnUse">
<stop stop-color="#F7DD43"/>
<stop offset="1" stop-color="#F7DD43" stop-opacity="0"/>
</linearGradient>
<linearGradient id="paint67_linear_167_179" x1="1412.94" y1="331.062" x2="1412.94" y2="676.96" gradientUnits="userSpaceOnUse">
<stop stop-color="#F7DD43"/>
<stop offset="1" stop-color="#F7DD43" stop-opacity="0"/>
</linearGradient>
<linearGradient id="paint68_linear_167_179" x1="1412.94" y1="331.062" x2="1412.94" y2="676.96" gradientUnits="userSpaceOnUse">
<stop stop-color="#F7DD43"/>
<stop offset="1" stop-color="#F7DD43" stop-opacity="0"/>
</linearGradient>
<linearGradient id="paint69_linear_167_179" x1="1412.94" y1="331.062" x2="1412.94" y2="676.96" gradientUnits="userSpaceOnUse">
<stop stop-color="#F7DD43"/>
<stop offset="1" stop-color="#F7DD43" stop-opacity="0"/>
</linearGradient>
<linearGradient id="paint70_linear_167_179" x1="1412.94" y1="331.062" x2="1412.94" y2="676.96" gradientUnits="userSpaceOnUse">
<stop stop-color="#F7DD43"/>
<stop offset="1" stop-color="#F7DD43" stop-opacity="0"/>
</linearGradient>
<linearGradient id="paint71_linear_167_179" x1="1412.94" y1="331.062" x2="1412.94" y2="676.96" gradientUnits="userSpaceOnUse">
<stop stop-color="#F7DD43"/>
<stop offset="1" stop-color="#F7DD43" stop-opacity="0"/>
</linearGradient>
<linearGradient id="paint72_linear_167_179" x1="1412.94" y1="331.062" x2="1412.94" y2="676.96" gradientUnits="userSpaceOnUse">
<stop stop-color="#F7DD43"/>
<stop offset="1" stop-color="#F7DD43" stop-opacity="0"/>
</linearGradient>
<linearGradient id="paint73_linear_167_179" x1="1412.94" y1="331.062" x2="1412.94" y2="676.96" gradientUnits="userSpaceOnUse">
<stop stop-color="#F7DD43"/>
<stop offset="1" stop-color="#F7DD43" stop-opacity="0"/>
</linearGradient>
<linearGradient id="paint74_linear_167_179" x1="1412.94" y1="331.062" x2="1412.94" y2="676.96" gradientUnits="userSpaceOnUse">
<stop stop-color="#F7DD43"/>
<stop offset="1" stop-color="#F7DD43" stop-opacity="0"/>
</linearGradient>
<linearGradient id="paint75_linear_167_179" x1="1412.94" y1="331.062" x2="1412.94" y2="676.96" gradientUnits="userSpaceOnUse">
<stop stop-color="#F7DD43"/>
<stop offset="1" stop-color="#F7DD43" stop-opacity="0"/>
</linearGradient>
<linearGradient id="paint76_linear_167_179" x1="1412.94" y1="331.062" x2="1412.94" y2="676.96" gradientUnits="userSpaceOnUse">
<stop stop-color="#F7DD43"/>
<stop offset="1" stop-color="#F7DD43" stop-opacity="0"/>
</linearGradient>
<linearGradient id="paint77_linear_167_179" x1="1412.94" y1="331.062" x2="1412.94" y2="676.96" gradientUnits="userSpaceOnUse">
<stop stop-color="#F7DD43"/>
<stop offset="1" stop-color="#F7DD43" stop-opacity="0"/>
</linearGradient>
<linearGradient id="paint78_linear_167_179" x1="1412.94" y1="331.062" x2="1412.94" y2="676.96" gradientUnits="userSpaceOnUse">
<stop stop-color="#F7DD43"/>
<stop offset="1" stop-color="#F7DD43" stop-opacity="0"/>
</linearGradient>
<linearGradient id="paint79_linear_167_179" x1="1412.94" y1="331.062" x2="1412.94" y2="676.96" gradientUnits="userSpaceOnUse">
<stop stop-color="#F7DD43"/>
<stop offset="1" stop-color="#F7DD43" stop-opacity="0"/>
</linearGradient>
<linearGradient id="paint80_linear_167_179" x1="1412.94" y1="331.062" x2="1412.94" y2="676.96" gradientUnits="userSpaceOnUse">
<stop stop-color="#F7DD43"/>
<stop offset="1" stop-color="#F7DD43" stop-opacity="0"/>
</linearGradient>
<linearGradient id="paint81_linear_167_179" x1="1412.94" y1="331.062" x2="1412.94" y2="676.96" gradientUnits="userSpaceOnUse">
<stop stop-color="#F7DD43"/>
<stop offset="1" stop-color="#F7DD43" stop-opacity="0"/>
</linearGradient>
<linearGradient id="paint82_linear_167_179" x1="1412.94" y1="331.062" x2="1412.94" y2="676.96" gradientUnits="userSpaceOnUse">
<stop stop-color="#F7DD43"/>
<stop offset="1" stop-color="#F7DD43" stop-opacity="0"/>
</linearGradient>
<linearGradient id="paint83_linear_167_179" x1="1412.94" y1="331.062" x2="1412.94" y2="676.96" gradientUnits="userSpaceOnUse">
<stop stop-color="#F7DD43"/>
<stop offset="1" stop-color="#F7DD43" stop-opacity="0"/>
</linearGradient>
<linearGradient id="paint84_linear_167_179" x1="1412.94" y1="331.062" x2="1412.94" y2="676.96" gradientUnits="userSpaceOnUse">
<stop stop-color="#F7DD43"/>
<stop offset="1" stop-color="#F7DD43" stop-opacity="0"/>
</linearGradient>
<linearGradient id="paint85_linear_167_179" x1="1412.94" y1="331.062" x2="1412.94" y2="676.96" gradientUnits="userSpaceOnUse">
<stop stop-color="#F7DD43"/>
<stop offset="1" stop-color="#F7DD43" stop-opacity="0"/>
</linearGradient>
<linearGradient id="paint86_linear_167_179" x1="1412.94" y1="331.062" x2="1412.94" y2="676.96" gradientUnits="userSpaceOnUse">
<stop stop-color="#F7DD43"/>
<stop offset="1" stop-color="#F7DD43" stop-opacity="0"/>
</linearGradient>
<linearGradient id="paint87_linear_167_179" x1="1412.94" y1="331.062" x2="1412.94" y2="676.96" gradientUnits="userSpaceOnUse">
<stop stop-color="#F7DD43"/>
<stop offset="1" stop-color="#F7DD43" stop-opacity="0"/>
</linearGradient>
<linearGradient id="paint88_linear_167_179" x1="1412.94" y1="331.062" x2="1412.94" y2="676.96" gradientUnits="userSpaceOnUse">
<stop stop-color="#F7DD43"/>
<stop offset="1" stop-color="#F7DD43" stop-opacity="0"/>
</linearGradient>
<linearGradient id="paint89_linear_167_179" x1="1412.94" y1="331.062" x2="1412.94" y2="676.96" gradientUnits="userSpaceOnUse">
<stop stop-color="#F7DD43"/>
<stop offset="1" stop-color="#F7DD43" stop-opacity="0"/>
</linearGradient>
<linearGradient id="paint90_linear_167_179" x1="1412.94" y1="331.062" x2="1412.94" y2="676.96" gradientUnits="userSpaceOnUse">
<stop stop-color="#F7DD43"/>
<stop offset="1" stop-color="#F7DD43" stop-opacity="0"/>
</linearGradient>
<linearGradient id="paint91_linear_167_179" x1="1412.94" y1="331.062" x2="1412.94" y2="676.96" gradientUnits="userSpaceOnUse">
<stop stop-color="#F7DD43"/>
<stop offset="1" stop-color="#F7DD43" stop-opacity="0"/>
</linearGradient>
<linearGradient id="paint92_linear_167_179" x1="1412.94" y1="331.062" x2="1412.94" y2="676.96" gradientUnits="userSpaceOnUse">
<stop stop-color="#F7DD43"/>
<stop offset="1" stop-color="#F7DD43" stop-opacity="0"/>
</linearGradient>
<linearGradient id="paint93_linear_167_179" x1="1412.94" y1="331.062" x2="1412.94" y2="676.96" gradientUnits="userSpaceOnUse">
<stop stop-color="#F7DD43"/>
<stop offset="1" stop-color="#F7DD43" stop-opacity="0"/>
</linearGradient>
<clipPath id="clip0_167_179">
<rect width="1728" height="1080" fill="white"/>
</clipPath>
</defs>
</svg>
