<svg width="2143" height="1502" viewBox="0 0 2143 1502" fill="none" xmlns="http://www.w3.org/2000/svg">
<rect width="1341" height="933" transform="translate(401 401)" fill="#121214"/>
<g opacity="0.2" filter="url(#filter0_f_122_130)">
<ellipse cx="1071.5" cy="751" rx="670.5" ry="350" fill="#B3A659"/>
</g>
<path d="M592.035 987C593.53 987 594.662 987.63 595.431 988.891C596.213 990.138 596.605 991.953 596.605 994.336C596.605 996.719 596.213 998.541 595.431 999.802C594.662 1001.06 593.53 1001.69 592.035 1001.69C590.554 1001.69 589.422 1001.06 588.639 999.802C587.856 998.541 587.465 996.719 587.465 994.336C587.465 991.967 587.856 990.152 588.639 988.891C589.422 987.63 590.554 987 592.035 987ZM588.953 994.336C588.953 996.026 589.107 997.35 589.415 998.306L594.068 989.099C593.579 988.448 592.901 988.122 592.035 988.122C591.071 988.122 590.316 988.635 589.771 989.66C589.226 990.672 588.953 992.23 588.953 994.336ZM592.035 1000.55C593.013 1000.55 593.775 1000.04 594.32 999.033C594.865 998.008 595.137 996.442 595.137 994.336C595.137 992.549 594.963 991.163 594.613 990.18L589.96 999.469C590.463 1000.19 591.154 1000.55 592.035 1000.55Z" fill="url(#paint0_linear_122_130)" fill-opacity="0.6"/>
<path d="M593.293 1024.13H596.374V1025.24H588.387V1024.13H591.951V1012.46L588.555 1014.47L587.968 1013.54L592.161 1010.96H593.293V1024.13Z" fill="url(#paint1_linear_122_130)" fill-opacity="0.6"/>
<path d="M592.035 1034.5C593.53 1034.5 594.662 1035.13 595.431 1036.39C596.213 1037.64 596.605 1039.46 596.605 1041.84C596.605 1044.22 596.213 1046.04 595.431 1047.3C594.662 1048.56 593.53 1049.2 592.035 1049.2C590.554 1049.2 589.422 1048.56 588.639 1047.3C587.856 1046.04 587.465 1044.22 587.465 1041.84C587.465 1039.47 587.856 1037.65 588.639 1036.39C589.422 1035.13 590.554 1034.5 592.035 1034.5ZM588.953 1041.84C588.953 1043.53 589.107 1044.85 589.415 1045.81L594.068 1036.6C593.579 1035.95 592.901 1035.62 592.035 1035.62C591.071 1035.62 590.316 1036.14 589.771 1037.16C589.226 1038.17 588.953 1039.73 588.953 1041.84ZM592.035 1048.05C593.013 1048.05 593.775 1047.55 594.32 1046.53C594.865 1045.51 595.137 1043.94 595.137 1041.84C595.137 1040.05 594.963 1038.67 594.613 1037.68L589.96 1046.97C590.463 1047.69 591.154 1048.05 592.035 1048.05Z" fill="url(#paint2_linear_122_130)" fill-opacity="0.6"/>
<path d="M593.293 1071.64H596.374V1072.74H588.387V1071.64H591.951V1059.96L588.555 1061.97L587.968 1061.04L592.161 1058.46H593.293V1071.64Z" fill="url(#paint3_linear_122_130)" fill-opacity="0.6"/>
<path d="M593.293 1095.39H596.374V1096.49H588.387V1095.39H591.951V1083.71L588.555 1085.72L587.968 1084.79L592.161 1082.21H593.293V1095.39Z" fill="url(#paint4_linear_122_130)" fill-opacity="0.6"/>
<path d="M592.035 1105.76C593.53 1105.76 594.662 1106.39 595.431 1107.65C596.213 1108.89 596.605 1110.71 596.605 1113.09C596.605 1115.47 596.213 1117.3 595.431 1118.56C594.662 1119.82 593.53 1120.45 592.035 1120.45C590.554 1120.45 589.422 1119.82 588.639 1118.56C587.856 1117.3 587.465 1115.47 587.465 1113.09C587.465 1110.72 587.856 1108.91 588.639 1107.65C589.422 1106.39 590.554 1105.76 592.035 1105.76ZM588.953 1113.09C588.953 1114.78 589.107 1116.1 589.415 1117.06L594.068 1107.85C593.579 1107.2 592.901 1106.88 592.035 1106.88C591.071 1106.88 590.316 1107.39 589.771 1108.42C589.226 1109.43 588.953 1110.99 588.953 1113.09ZM592.035 1119.31C593.013 1119.31 593.775 1118.8 594.32 1117.79C594.865 1116.76 595.137 1115.2 595.137 1113.09C595.137 1111.3 594.963 1109.92 594.613 1108.93L589.96 1118.22C590.463 1118.95 591.154 1119.31 592.035 1119.31Z" fill="url(#paint5_linear_122_130)" fill-opacity="0.6"/>
<path d="M593.293 1142.89H596.374V1143.99H588.387V1142.89H591.951V1131.21L588.555 1133.23L587.968 1132.29L592.161 1129.71H593.293V1142.89Z" fill="url(#paint6_linear_122_130)" fill-opacity="0.6"/>
<path d="M592.035 1153.26C593.53 1153.26 594.662 1153.89 595.431 1155.15C596.213 1156.4 596.605 1158.21 596.605 1160.59C596.605 1162.98 596.213 1164.8 595.431 1166.06C594.662 1167.32 593.53 1167.95 592.035 1167.95C590.554 1167.95 589.422 1167.32 588.639 1166.06C587.856 1164.8 587.465 1162.98 587.465 1160.59C587.465 1158.22 587.856 1156.41 588.639 1155.15C589.422 1153.89 590.554 1153.26 592.035 1153.26ZM588.953 1160.59C588.953 1162.28 589.107 1163.61 589.415 1164.56L594.068 1155.36C593.579 1154.71 592.901 1154.38 592.035 1154.38C591.071 1154.38 590.316 1154.89 589.771 1155.92C589.226 1156.93 588.953 1158.49 588.953 1160.59ZM592.035 1166.81C593.013 1166.81 593.775 1166.3 594.32 1165.29C594.865 1164.27 595.137 1162.7 595.137 1160.59C595.137 1158.81 594.963 1157.42 594.613 1156.44L589.96 1165.73C590.463 1166.45 591.154 1166.81 592.035 1166.81Z" fill="url(#paint7_linear_122_130)" fill-opacity="0.6"/>
<path d="M592.035 1177.01C593.53 1177.01 594.662 1177.64 595.431 1178.9C596.213 1180.15 596.605 1181.96 596.605 1184.34C596.605 1186.73 596.213 1188.55 595.431 1189.81C594.662 1191.07 593.53 1191.7 592.035 1191.7C590.554 1191.7 589.422 1191.07 588.639 1189.81C587.856 1188.55 587.465 1186.73 587.465 1184.34C587.465 1181.98 587.856 1180.16 588.639 1178.9C589.422 1177.64 590.554 1177.01 592.035 1177.01ZM588.953 1184.34C588.953 1186.03 589.107 1187.36 589.415 1188.31L594.068 1179.11C593.579 1178.46 592.901 1178.13 592.035 1178.13C591.071 1178.13 590.316 1178.64 589.771 1179.67C589.226 1180.68 588.953 1182.24 588.953 1184.34ZM592.035 1190.56C593.013 1190.56 593.775 1190.05 594.32 1189.04C594.865 1188.02 595.137 1186.45 595.137 1184.34C595.137 1182.56 594.963 1181.17 594.613 1180.19L589.96 1189.48C590.463 1190.2 591.154 1190.56 592.035 1190.56Z" fill="url(#paint8_linear_122_130)" fill-opacity="0.6"/>
<path d="M593.293 1214.14H596.374V1215.24H588.387V1214.14H591.951V1202.46L588.555 1204.48L587.968 1203.54L592.161 1200.97H593.293V1214.14Z" fill="url(#paint9_linear_122_130)" fill-opacity="0.6"/>
<path d="M592.035 1224.51C593.53 1224.51 594.662 1225.14 595.431 1226.4C596.213 1227.65 596.605 1229.46 596.605 1231.85C596.605 1234.23 596.213 1236.05 595.431 1237.31C594.662 1238.57 593.53 1239.2 592.035 1239.2C590.554 1239.2 589.422 1238.57 588.639 1237.31C587.856 1236.05 587.465 1234.23 587.465 1231.85C587.465 1229.48 587.856 1227.66 588.639 1226.4C589.422 1225.14 590.554 1224.51 592.035 1224.51ZM588.953 1231.85C588.953 1233.54 589.107 1234.86 589.415 1235.82L594.068 1226.61C593.579 1225.96 592.901 1225.63 592.035 1225.63C591.071 1225.63 590.316 1226.15 589.771 1227.17C589.226 1228.18 588.953 1229.74 588.953 1231.85ZM592.035 1238.06C593.013 1238.06 593.775 1237.55 594.32 1236.54C594.865 1235.52 595.137 1233.95 595.137 1231.85C595.137 1230.06 594.963 1228.67 594.613 1227.69L589.96 1236.98C590.463 1237.7 591.154 1238.06 592.035 1238.06Z" fill="url(#paint10_linear_122_130)" fill-opacity="0.6"/>
<path d="M593.293 1261.65H596.374V1262.75H588.387V1261.65H591.951V1249.97L588.555 1251.98L587.968 1251.05L592.161 1248.47H593.293V1261.65Z" fill="url(#paint11_linear_122_130)" fill-opacity="0.6"/>
<path d="M593.293 1285.4H596.374V1286.5H588.387V1285.4H591.951V1273.72L588.555 1275.73L587.968 1274.8L592.161 1272.22H593.293V1285.4Z" fill="url(#paint12_linear_122_130)" fill-opacity="0.6"/>
<path d="M630.965 1034.5C632.46 1034.5 633.592 1035.13 634.361 1036.39C635.144 1037.64 635.535 1039.46 635.535 1041.84C635.535 1044.22 635.144 1046.04 634.361 1047.3C633.592 1048.56 632.46 1049.2 630.965 1049.2C629.484 1049.2 628.352 1048.56 627.569 1047.3C626.787 1046.04 626.395 1044.22 626.395 1041.84C626.395 1039.47 626.787 1037.65 627.569 1036.39C628.352 1035.13 629.484 1034.5 630.965 1034.5ZM627.884 1041.84C627.884 1043.53 628.037 1044.85 628.345 1045.81L632.998 1036.6C632.509 1035.95 631.832 1035.62 630.965 1035.62C630.001 1035.62 629.246 1036.14 628.701 1037.16C628.156 1038.17 627.884 1039.73 627.884 1041.84ZM630.965 1048.05C631.943 1048.05 632.705 1047.55 633.25 1046.53C633.795 1045.51 634.068 1043.94 634.068 1041.84C634.068 1040.05 633.893 1038.67 633.543 1037.68L628.89 1046.97C629.393 1047.69 630.085 1048.05 630.965 1048.05Z" fill="url(#paint13_linear_122_130)" fill-opacity="0.6"/>
<path d="M632.223 1071.64H635.304V1072.74H627.318V1071.64H630.881V1059.96L627.485 1061.97L626.898 1061.04L631.091 1058.46H632.223V1071.64Z" fill="url(#paint14_linear_122_130)" fill-opacity="0.6"/>
<path d="M630.965 1082C632.46 1082 633.592 1082.63 634.361 1083.9C635.144 1085.14 635.535 1086.96 635.535 1089.34C635.535 1091.72 635.144 1093.55 634.361 1094.81C633.592 1096.07 632.46 1096.7 630.965 1096.7C629.484 1096.7 628.352 1096.07 627.569 1094.81C626.787 1093.55 626.395 1091.72 626.395 1089.34C626.395 1086.97 626.787 1085.16 627.569 1083.9C628.352 1082.63 629.484 1082 630.965 1082ZM627.884 1089.34C627.884 1091.03 628.037 1092.35 628.345 1093.31L632.998 1084.1C632.509 1083.45 631.832 1083.13 630.965 1083.13C630.001 1083.13 629.246 1083.64 628.701 1084.66C628.156 1085.68 627.884 1087.23 627.884 1089.34ZM630.965 1095.55C631.943 1095.55 632.705 1095.05 633.25 1094.04C633.795 1093.01 634.068 1091.45 634.068 1089.34C634.068 1087.55 633.893 1086.17 633.543 1085.18L628.89 1094.47C629.393 1095.19 630.085 1095.55 630.965 1095.55Z" fill="url(#paint15_linear_122_130)" fill-opacity="0.6"/>
<path d="M630.965 1105.76C632.46 1105.76 633.592 1106.39 634.361 1107.65C635.144 1108.89 635.535 1110.71 635.535 1113.09C635.535 1115.47 635.144 1117.3 634.361 1118.56C633.592 1119.82 632.46 1120.45 630.965 1120.45C629.484 1120.45 628.352 1119.82 627.569 1118.56C626.787 1117.3 626.395 1115.47 626.395 1113.09C626.395 1110.72 626.787 1108.91 627.569 1107.65C628.352 1106.39 629.484 1105.76 630.965 1105.76ZM627.884 1113.09C627.884 1114.78 628.037 1116.1 628.345 1117.06L632.998 1107.85C632.509 1107.2 631.832 1106.88 630.965 1106.88C630.001 1106.88 629.246 1107.39 628.701 1108.42C628.156 1109.43 627.884 1110.99 627.884 1113.09ZM630.965 1119.31C631.943 1119.31 632.705 1118.8 633.25 1117.79C633.795 1116.76 634.068 1115.2 634.068 1113.09C634.068 1111.3 633.893 1109.92 633.543 1108.93L628.89 1118.22C629.393 1118.95 630.085 1119.31 630.965 1119.31Z" fill="url(#paint16_linear_122_130)" fill-opacity="0.6"/>
<path d="M632.223 1142.89H635.304V1143.99H627.318V1142.89H630.881V1131.21L627.485 1133.23L626.898 1132.29L631.091 1129.71H632.223V1142.89Z" fill="url(#paint17_linear_122_130)" fill-opacity="0.6"/>
<path d="M630.965 1153.26C632.46 1153.26 633.592 1153.89 634.361 1155.15C635.144 1156.4 635.535 1158.21 635.535 1160.59C635.535 1162.98 635.144 1164.8 634.361 1166.06C633.592 1167.32 632.46 1167.95 630.965 1167.95C629.484 1167.95 628.352 1167.32 627.569 1166.06C626.787 1164.8 626.395 1162.98 626.395 1160.59C626.395 1158.22 626.787 1156.41 627.569 1155.15C628.352 1153.89 629.484 1153.26 630.965 1153.26ZM627.884 1160.59C627.884 1162.28 628.037 1163.61 628.345 1164.56L632.998 1155.36C632.509 1154.71 631.832 1154.38 630.965 1154.38C630.001 1154.38 629.246 1154.89 628.701 1155.92C628.156 1156.93 627.884 1158.49 627.884 1160.59ZM630.965 1166.81C631.943 1166.81 632.705 1166.3 633.25 1165.29C633.795 1164.27 634.068 1162.7 634.068 1160.59C634.068 1158.81 633.893 1157.42 633.543 1156.44L628.89 1165.73C629.393 1166.45 630.085 1166.81 630.965 1166.81Z" fill="url(#paint18_linear_122_130)" fill-opacity="0.6"/>
<path d="M632.223 1190.39H635.304V1191.49H627.318V1190.39H630.881V1178.71L627.485 1180.73L626.898 1179.79L631.091 1177.22H632.223V1190.39Z" fill="url(#paint19_linear_122_130)" fill-opacity="0.6"/>
<path d="M630.965 1200.76C632.46 1200.76 633.592 1201.39 634.361 1202.65C635.144 1203.9 635.535 1205.71 635.535 1208.1C635.535 1210.48 635.144 1212.3 634.361 1213.56C633.592 1214.82 632.46 1215.45 630.965 1215.45C629.484 1215.45 628.352 1214.82 627.569 1213.56C626.787 1212.3 626.395 1210.48 626.395 1208.1C626.395 1205.73 626.787 1203.91 627.569 1202.65C628.352 1201.39 629.484 1200.76 630.965 1200.76ZM627.884 1208.1C627.884 1209.79 628.037 1211.11 628.345 1212.07L632.998 1202.86C632.509 1202.21 631.832 1201.88 630.965 1201.88C630.001 1201.88 629.246 1202.39 628.701 1203.42C628.156 1204.43 627.884 1205.99 627.884 1208.1ZM630.965 1214.31C631.943 1214.31 632.705 1213.8 633.25 1212.79C633.795 1211.77 634.068 1210.2 634.068 1208.1C634.068 1206.31 633.893 1204.92 633.543 1203.94L628.89 1213.23C629.393 1213.95 630.085 1214.31 630.965 1214.31Z" fill="url(#paint20_linear_122_130)" fill-opacity="0.6"/>
<path d="M630.965 1224.51C632.46 1224.51 633.592 1225.14 634.361 1226.4C635.144 1227.65 635.535 1229.46 635.535 1231.85C635.535 1234.23 635.144 1236.05 634.361 1237.31C633.592 1238.57 632.46 1239.2 630.965 1239.2C629.484 1239.2 628.352 1238.57 627.569 1237.31C626.787 1236.05 626.395 1234.23 626.395 1231.85C626.395 1229.48 626.787 1227.66 627.569 1226.4C628.352 1225.14 629.484 1224.51 630.965 1224.51ZM627.884 1231.85C627.884 1233.54 628.037 1234.86 628.345 1235.82L632.998 1226.61C632.509 1225.96 631.832 1225.63 630.965 1225.63C630.001 1225.63 629.246 1226.15 628.701 1227.17C628.156 1228.18 627.884 1229.74 627.884 1231.85ZM630.965 1238.06C631.943 1238.06 632.705 1237.55 633.25 1236.54C633.795 1235.52 634.068 1233.95 634.068 1231.85C634.068 1230.06 633.893 1228.67 633.543 1227.69L628.89 1236.98C629.393 1237.7 630.085 1238.06 630.965 1238.06Z" fill="url(#paint21_linear_122_130)" fill-opacity="0.6"/>
<path d="M632.223 1261.65H635.304V1262.75H627.318V1261.65H630.881V1249.97L627.485 1251.98L626.898 1251.05L631.091 1248.47H632.223V1261.65Z" fill="url(#paint22_linear_122_130)" fill-opacity="0.6"/>
<path d="M630.965 1272.01C632.46 1272.01 633.592 1272.64 634.361 1273.9C635.144 1275.15 635.535 1276.97 635.535 1279.35C635.535 1281.73 635.144 1283.55 634.361 1284.81C633.592 1286.08 632.46 1286.71 630.965 1286.71C629.484 1286.71 628.352 1286.08 627.569 1284.81C626.787 1283.55 626.395 1281.73 626.395 1279.35C626.395 1276.98 626.787 1275.16 627.569 1273.9C628.352 1272.64 629.484 1272.01 630.965 1272.01ZM627.884 1279.35C627.884 1281.04 628.037 1282.36 628.345 1283.32L632.998 1274.11C632.509 1273.46 631.832 1273.13 630.965 1273.13C630.001 1273.13 629.246 1273.65 628.701 1274.67C628.156 1275.68 627.884 1277.24 627.884 1279.35ZM630.965 1285.56C631.943 1285.56 632.705 1285.06 633.25 1284.05C633.795 1283.02 634.068 1281.45 634.068 1279.35C634.068 1277.56 633.893 1276.18 633.543 1275.19L628.89 1284.48C629.393 1285.2 630.085 1285.56 630.965 1285.56Z" fill="url(#paint23_linear_122_130)" fill-opacity="0.6"/>
<path d="M632.223 1309.15H635.304V1310.25H627.318V1309.15H630.881V1297.47L627.485 1299.48L626.898 1298.55L631.091 1295.97H632.223V1309.15Z" fill="url(#paint24_linear_122_130)" fill-opacity="0.6"/>
<path d="M632.223 1332.9H635.304V1334H627.318V1332.9H630.881V1321.22L627.485 1323.23L626.898 1322.3L631.091 1319.72H632.223V1332.9Z" fill="url(#paint25_linear_122_130)" fill-opacity="0.6"/>
<path d="M572.57 1058.25C574.065 1058.25 575.197 1058.88 575.966 1060.14C576.748 1061.39 577.14 1063.21 577.14 1065.59C577.14 1067.97 576.748 1069.79 575.966 1071.05C575.197 1072.32 574.065 1072.95 572.57 1072.95C571.088 1072.95 569.956 1072.32 569.174 1071.05C568.391 1069.79 568 1067.97 568 1065.59C568 1063.22 568.391 1061.41 569.174 1060.14C569.956 1058.88 571.088 1058.25 572.57 1058.25ZM569.488 1065.59C569.488 1067.28 569.642 1068.6 569.95 1069.56L574.603 1060.35C574.114 1059.7 573.436 1059.38 572.57 1059.38C571.606 1059.38 570.851 1059.89 570.306 1060.91C569.761 1061.92 569.488 1063.48 569.488 1065.59ZM572.57 1071.8C573.548 1071.8 574.31 1071.3 574.855 1070.29C575.4 1069.26 575.672 1067.7 575.672 1065.59C575.672 1063.8 575.498 1062.42 575.148 1061.43L570.495 1070.72C570.998 1071.44 571.689 1071.8 572.57 1071.8Z" fill="url(#paint26_linear_122_130)" fill-opacity="0.6"/>
<path d="M572.57 1082C574.065 1082 575.197 1082.63 575.966 1083.9C576.748 1085.14 577.14 1086.96 577.14 1089.34C577.14 1091.72 576.748 1093.55 575.966 1094.81C575.197 1096.07 574.065 1096.7 572.57 1096.7C571.088 1096.7 569.956 1096.07 569.174 1094.81C568.391 1093.55 568 1091.72 568 1089.34C568 1086.97 568.391 1085.16 569.174 1083.9C569.956 1082.63 571.088 1082 572.57 1082ZM569.488 1089.34C569.488 1091.03 569.642 1092.35 569.95 1093.31L574.603 1084.1C574.114 1083.45 573.436 1083.13 572.57 1083.13C571.606 1083.13 570.851 1083.64 570.306 1084.66C569.761 1085.68 569.488 1087.23 569.488 1089.34ZM572.57 1095.55C573.548 1095.55 574.31 1095.05 574.855 1094.04C575.4 1093.01 575.672 1091.45 575.672 1089.34C575.672 1087.55 575.498 1086.17 575.148 1085.18L570.495 1094.47C570.998 1095.19 571.689 1095.55 572.57 1095.55Z" fill="url(#paint27_linear_122_130)" fill-opacity="0.6"/>
<path d="M573.828 1119.14H576.909V1120.24H568.922V1119.14H572.486V1107.46L569.09 1109.48L568.503 1108.54L572.696 1105.96H573.828V1119.14Z" fill="url(#paint28_linear_122_130)" fill-opacity="0.6"/>
<path d="M572.57 1129.51C574.065 1129.51 575.197 1130.14 575.966 1131.4C576.748 1132.64 577.14 1134.46 577.14 1136.84C577.14 1139.23 576.748 1141.05 575.966 1142.31C575.197 1143.57 574.065 1144.2 572.57 1144.2C571.088 1144.2 569.956 1143.57 569.174 1142.31C568.391 1141.05 568 1139.23 568 1136.84C568 1134.47 568.391 1132.66 569.174 1131.4C569.956 1130.14 571.088 1129.51 572.57 1129.51ZM569.488 1136.84C569.488 1138.53 569.642 1139.86 569.95 1140.81L574.603 1131.61C574.114 1130.95 573.436 1130.63 572.57 1130.63C571.606 1130.63 570.851 1131.14 570.306 1132.17C569.761 1133.18 569.488 1134.74 569.488 1136.84ZM572.57 1143.06C573.548 1143.06 574.31 1142.55 574.855 1141.54C575.4 1140.51 575.672 1138.95 575.672 1136.84C575.672 1135.06 575.498 1133.67 575.148 1132.69L570.495 1141.98C570.998 1142.7 571.689 1143.06 572.57 1143.06Z" fill="url(#paint29_linear_122_130)" fill-opacity="0.6"/>
<path d="M573.828 1166.64H576.909V1167.74H568.922V1166.64H572.486V1154.96L569.09 1156.98L568.503 1156.04L572.696 1153.47H573.828V1166.64Z" fill="url(#paint30_linear_122_130)" fill-opacity="0.6"/>
<path d="M573.828 1190.39H576.909V1191.49H568.922V1190.39H572.486V1178.71L569.09 1180.73L568.503 1179.79L572.696 1177.22H573.828V1190.39Z" fill="url(#paint31_linear_122_130)" fill-opacity="0.6"/>
<path d="M612.758 1024.13H615.839V1025.24H607.853V1024.13H611.416V1012.46L608.02 1014.47L607.433 1013.54L611.626 1010.96H612.758V1024.13Z" fill="url(#paint32_linear_122_130)" fill-opacity="0.6"/>
<path d="M611.5 1034.5C612.995 1034.5 614.127 1035.13 614.896 1036.39C615.679 1037.64 616.07 1039.46 616.07 1041.84C616.07 1044.22 615.679 1046.04 614.896 1047.3C614.127 1048.56 612.995 1049.2 611.5 1049.2C610.019 1049.2 608.887 1048.56 608.104 1047.3C607.321 1046.04 606.93 1044.22 606.93 1041.84C606.93 1039.47 607.321 1037.65 608.104 1036.39C608.887 1035.13 610.019 1034.5 611.5 1034.5ZM608.419 1041.84C608.419 1043.53 608.572 1044.85 608.88 1045.81L613.533 1036.6C613.044 1035.95 612.366 1035.62 611.5 1035.62C610.536 1035.62 609.781 1036.14 609.236 1037.16C608.691 1038.17 608.419 1039.73 608.419 1041.84ZM611.5 1048.05C612.478 1048.05 613.24 1047.55 613.785 1046.53C614.33 1045.51 614.602 1043.94 614.602 1041.84C614.602 1040.05 614.428 1038.67 614.078 1037.68L609.425 1046.97C609.928 1047.69 610.62 1048.05 611.5 1048.05Z" fill="url(#paint33_linear_122_130)" fill-opacity="0.6"/>
<path d="M612.758 1071.64H615.839V1072.74H607.853V1071.64H611.416V1059.96L608.02 1061.97L607.433 1061.04L611.626 1058.46H612.758V1071.64Z" fill="url(#paint34_linear_122_130)" fill-opacity="0.6"/>
<path d="M612.758 1095.39H615.839V1096.49H607.853V1095.39H611.416V1083.71L608.02 1085.72L607.433 1084.79L611.626 1082.21H612.758V1095.39Z" fill="url(#paint35_linear_122_130)" fill-opacity="0.6"/>
<path d="M611.5 1105.76C612.995 1105.76 614.127 1106.39 614.896 1107.65C615.679 1108.89 616.07 1110.71 616.07 1113.09C616.07 1115.47 615.679 1117.3 614.896 1118.56C614.127 1119.82 612.995 1120.45 611.5 1120.45C610.019 1120.45 608.887 1119.82 608.104 1118.56C607.321 1117.3 606.93 1115.47 606.93 1113.09C606.93 1110.72 607.321 1108.91 608.104 1107.65C608.887 1106.39 610.019 1105.76 611.5 1105.76ZM608.419 1113.09C608.419 1114.78 608.572 1116.1 608.88 1117.06L613.533 1107.85C613.044 1107.2 612.366 1106.88 611.5 1106.88C610.536 1106.88 609.781 1107.39 609.236 1108.42C608.691 1109.43 608.419 1110.99 608.419 1113.09ZM611.5 1119.31C612.478 1119.31 613.24 1118.8 613.785 1117.79C614.33 1116.76 614.602 1115.2 614.602 1113.09C614.602 1111.3 614.428 1109.92 614.078 1108.93L609.425 1118.22C609.928 1118.95 610.62 1119.31 611.5 1119.31Z" fill="url(#paint36_linear_122_130)" fill-opacity="0.6"/>
<path d="M612.758 1142.89H615.839V1143.99H607.853V1142.89H611.416V1131.21L608.02 1133.23L607.433 1132.29L611.626 1129.71H612.758V1142.89Z" fill="url(#paint37_linear_122_130)" fill-opacity="0.6"/>
<path d="M612.758 1166.64H615.839V1167.74H607.853V1166.64H611.416V1154.96L608.02 1156.98L607.433 1156.04L611.626 1153.47H612.758V1166.64Z" fill="url(#paint38_linear_122_130)" fill-opacity="0.6"/>
<path d="M611.5 1177.01C612.995 1177.01 614.127 1177.64 614.896 1178.9C615.679 1180.15 616.07 1181.96 616.07 1184.34C616.07 1186.73 615.679 1188.55 614.896 1189.81C614.127 1191.07 612.995 1191.7 611.5 1191.7C610.019 1191.7 608.887 1191.07 608.104 1189.81C607.321 1188.55 606.93 1186.73 606.93 1184.34C606.93 1181.98 607.321 1180.16 608.104 1178.9C608.887 1177.64 610.019 1177.01 611.5 1177.01ZM608.419 1184.34C608.419 1186.03 608.572 1187.36 608.88 1188.31L613.533 1179.11C613.044 1178.46 612.366 1178.13 611.5 1178.13C610.536 1178.13 609.781 1178.64 609.236 1179.67C608.691 1180.68 608.419 1182.24 608.419 1184.34ZM611.5 1190.56C612.478 1190.56 613.24 1190.05 613.785 1189.04C614.33 1188.02 614.602 1186.45 614.602 1184.34C614.602 1182.56 614.428 1181.17 614.078 1180.19L609.425 1189.48C609.928 1190.2 610.62 1190.56 611.5 1190.56Z" fill="url(#paint39_linear_122_130)" fill-opacity="0.6"/>
<path d="M612.758 1214.14H615.839V1215.24H607.853V1214.14H611.416V1202.46L608.02 1204.48L607.433 1203.54L611.626 1200.97H612.758V1214.14Z" fill="url(#paint40_linear_122_130)" fill-opacity="0.6"/>
<path d="M611.5 1224.51C612.995 1224.51 614.127 1225.14 614.896 1226.4C615.679 1227.65 616.07 1229.46 616.07 1231.85C616.07 1234.23 615.679 1236.05 614.896 1237.31C614.127 1238.57 612.995 1239.2 611.5 1239.2C610.019 1239.2 608.887 1238.57 608.104 1237.31C607.321 1236.05 606.93 1234.23 606.93 1231.85C606.93 1229.48 607.321 1227.66 608.104 1226.4C608.887 1225.14 610.019 1224.51 611.5 1224.51ZM608.419 1231.85C608.419 1233.54 608.572 1234.86 608.88 1235.82L613.533 1226.61C613.044 1225.96 612.366 1225.63 611.5 1225.63C610.536 1225.63 609.781 1226.15 609.236 1227.17C608.691 1228.18 608.419 1229.74 608.419 1231.85ZM611.5 1238.06C612.478 1238.06 613.24 1237.55 613.785 1236.54C614.33 1235.52 614.602 1233.95 614.602 1231.85C614.602 1230.06 614.428 1228.67 614.078 1227.69L609.425 1236.98C609.928 1237.7 610.62 1238.06 611.5 1238.06Z" fill="url(#paint41_linear_122_130)" fill-opacity="0.6"/>
<path d="M650.43 1010.75C651.926 1010.75 653.057 1011.38 653.826 1012.64C654.609 1013.89 655 1015.7 655 1018.09C655 1020.47 654.609 1022.29 653.826 1023.55C653.057 1024.81 651.926 1025.44 650.43 1025.44C648.949 1025.44 647.817 1024.81 647.034 1023.55C646.252 1022.29 645.86 1020.47 645.86 1018.09C645.86 1015.72 646.252 1013.9 647.034 1012.64C647.817 1011.38 648.949 1010.75 650.43 1010.75ZM647.349 1018.09C647.349 1019.78 647.502 1021.1 647.81 1022.06L652.464 1012.85C651.974 1012.2 651.297 1011.87 650.43 1011.87C649.466 1011.87 648.711 1012.39 648.166 1013.41C647.621 1014.42 647.349 1015.98 647.349 1018.09ZM650.43 1024.3C651.408 1024.3 652.17 1023.8 652.715 1022.78C653.26 1021.76 653.533 1020.19 653.533 1018.09C653.533 1016.3 653.358 1014.91 653.009 1013.93L648.355 1023.22C648.858 1023.94 649.55 1024.3 650.43 1024.3Z" fill="url(#paint42_linear_122_130)" fill-opacity="0.6"/>
<path d="M651.688 1047.89H654.769V1048.99H646.783V1047.89H650.346V1036.21L646.95 1038.22L646.363 1037.29L650.556 1034.71H651.688V1047.89Z" fill="url(#paint43_linear_122_130)" fill-opacity="0.6"/>
<path d="M651.688 1071.64H654.769V1072.74H646.783V1071.64H650.346V1059.96L646.95 1061.97L646.363 1061.04L650.556 1058.46H651.688V1071.64Z" fill="url(#paint44_linear_122_130)" fill-opacity="0.6"/>
<path d="M650.43 1082C651.926 1082 653.057 1082.63 653.826 1083.9C654.609 1085.14 655 1086.96 655 1089.34C655 1091.72 654.609 1093.55 653.826 1094.81C653.057 1096.07 651.926 1096.7 650.43 1096.7C648.949 1096.7 647.817 1096.07 647.034 1094.81C646.252 1093.55 645.86 1091.72 645.86 1089.34C645.86 1086.97 646.252 1085.16 647.034 1083.9C647.817 1082.63 648.949 1082 650.43 1082ZM647.349 1089.34C647.349 1091.03 647.502 1092.35 647.81 1093.31L652.464 1084.1C651.974 1083.45 651.297 1083.13 650.43 1083.13C649.466 1083.13 648.711 1083.64 648.166 1084.66C647.621 1085.68 647.349 1087.23 647.349 1089.34ZM650.43 1095.55C651.408 1095.55 652.17 1095.05 652.715 1094.04C653.26 1093.01 653.533 1091.45 653.533 1089.34C653.533 1087.55 653.358 1086.17 653.009 1085.18L648.355 1094.47C648.858 1095.19 649.55 1095.55 650.43 1095.55Z" fill="url(#paint45_linear_122_130)" fill-opacity="0.6"/>
<path d="M650.43 1105.76C651.926 1105.76 653.057 1106.39 653.826 1107.65C654.609 1108.89 655 1110.71 655 1113.09C655 1115.47 654.609 1117.3 653.826 1118.56C653.057 1119.82 651.926 1120.45 650.43 1120.45C648.949 1120.45 647.817 1119.82 647.034 1118.56C646.252 1117.3 645.86 1115.47 645.86 1113.09C645.86 1110.72 646.252 1108.91 647.034 1107.65C647.817 1106.39 648.949 1105.76 650.43 1105.76ZM647.349 1113.09C647.349 1114.78 647.502 1116.1 647.81 1117.06L652.464 1107.85C651.974 1107.2 651.297 1106.88 650.43 1106.88C649.466 1106.88 648.711 1107.39 648.166 1108.42C647.621 1109.43 647.349 1110.99 647.349 1113.09ZM650.43 1119.31C651.408 1119.31 652.17 1118.8 652.715 1117.79C653.26 1116.76 653.533 1115.2 653.533 1113.09C653.533 1111.3 653.358 1109.92 653.009 1108.93L648.355 1118.22C648.858 1118.95 649.55 1119.31 650.43 1119.31Z" fill="url(#paint46_linear_122_130)" fill-opacity="0.6"/>
<g opacity="0.6">
<path d="M1478.93 687C1480.36 687 1481.44 687.605 1482.17 688.815C1482.92 690.011 1483.29 691.753 1483.29 694.04C1483.29 696.327 1482.92 698.075 1482.17 699.285C1481.44 700.495 1480.36 701.1 1478.93 701.1C1477.52 701.1 1476.44 700.495 1475.69 699.285C1474.94 698.075 1474.57 696.327 1474.57 694.04C1474.57 691.767 1474.94 690.025 1475.69 688.815C1476.44 687.605 1477.52 687 1478.93 687ZM1475.99 694.04C1475.99 695.662 1476.14 696.932 1476.43 697.849L1480.87 689.014C1480.4 688.389 1479.76 688.077 1478.93 688.077C1478.01 688.077 1477.29 688.569 1476.77 689.553C1476.25 690.523 1475.99 692.019 1475.99 694.04ZM1478.93 700.003C1479.86 700.003 1480.59 699.518 1481.11 698.547C1481.63 697.564 1481.89 696.061 1481.89 694.04C1481.89 692.325 1481.72 690.995 1481.39 690.051L1476.95 698.966C1477.43 699.658 1478.09 700.003 1478.93 700.003Z" fill="url(#paint47_linear_122_130)"/>
<path d="M1480.13 722.637H1483.07V723.694H1475.45V722.637H1478.85V711.428L1475.61 713.363L1475.05 712.465L1479.05 709.992H1480.13V722.637Z" fill="url(#paint48_linear_122_130)"/>
<path d="M1478.93 732.586C1480.36 732.586 1481.44 733.191 1482.17 734.4C1482.92 735.597 1483.29 737.339 1483.29 739.626C1483.29 741.913 1482.92 743.661 1482.17 744.871C1481.44 746.081 1480.36 746.686 1478.93 746.686C1477.52 746.686 1476.44 746.081 1475.69 744.871C1474.94 743.661 1474.57 741.913 1474.57 739.626C1474.57 737.352 1474.94 735.61 1475.69 734.4C1476.44 733.191 1477.52 732.586 1478.93 732.586ZM1475.99 739.626C1475.99 741.248 1476.14 742.518 1476.43 743.435L1480.87 734.6C1480.4 733.975 1479.76 733.663 1478.93 733.663C1478.01 733.663 1477.29 734.155 1476.77 735.138C1476.25 736.109 1475.99 737.605 1475.99 739.626ZM1478.93 745.589C1479.86 745.589 1480.59 745.104 1481.11 744.133C1481.63 743.149 1481.89 741.647 1481.89 739.626C1481.89 737.911 1481.72 736.581 1481.39 735.637L1476.95 744.552C1477.43 745.243 1478.09 745.589 1478.93 745.589Z" fill="url(#paint49_linear_122_130)"/>
<path d="M1480.13 768.222H1483.07V769.279H1475.45V768.222H1478.85V757.014L1475.61 758.948L1475.05 758.051L1479.05 755.578H1480.13V768.222Z" fill="url(#paint50_linear_122_130)"/>
<path d="M1480.13 791.015H1483.07V792.072H1475.45V791.015H1478.85V779.807L1475.61 781.741L1475.05 780.844L1479.05 778.371H1480.13V791.015Z" fill="url(#paint51_linear_122_130)"/>
<path d="M1478.93 800.964C1480.36 800.964 1481.44 801.569 1482.17 802.779C1482.92 803.976 1483.29 805.717 1483.29 808.004C1483.29 810.291 1482.92 812.039 1482.17 813.249C1481.44 814.459 1480.36 815.064 1478.93 815.064C1477.52 815.064 1476.44 814.459 1475.69 813.249C1474.94 812.039 1474.57 810.291 1474.57 808.004C1474.57 805.731 1474.94 803.989 1475.69 802.779C1476.44 801.569 1477.52 800.964 1478.93 800.964ZM1475.99 808.004C1475.99 809.626 1476.14 810.896 1476.43 811.813L1480.87 802.978C1480.4 802.353 1479.76 802.041 1478.93 802.041C1478.01 802.041 1477.29 802.533 1476.77 803.517C1476.25 804.487 1475.99 805.983 1475.99 808.004ZM1478.93 813.967C1479.86 813.967 1480.59 813.482 1481.11 812.511C1481.63 811.528 1481.89 810.025 1481.89 808.004C1481.89 806.289 1481.72 804.959 1481.39 804.015L1476.95 812.93C1477.43 813.622 1478.09 813.967 1478.93 813.967Z" fill="url(#paint52_linear_122_130)"/>
<path d="M1480.13 836.601H1483.07V837.658H1475.45V836.601H1478.85V825.392L1475.61 827.327L1475.05 826.429L1479.05 823.956H1480.13V836.601Z" fill="url(#paint53_linear_122_130)"/>
<path d="M1478.93 846.55C1480.36 846.55 1481.44 847.155 1482.17 848.365C1482.92 849.561 1483.29 851.303 1483.29 853.59C1483.29 855.877 1482.92 857.625 1482.17 858.835C1481.44 860.045 1480.36 860.65 1478.93 860.65C1477.52 860.65 1476.44 860.045 1475.69 858.835C1474.94 857.625 1474.57 855.877 1474.57 853.59C1474.57 851.316 1474.94 849.574 1475.69 848.365C1476.44 847.155 1477.52 846.55 1478.93 846.55ZM1475.99 853.59C1475.99 855.212 1476.14 856.482 1476.43 857.399L1480.87 848.564C1480.4 847.939 1479.76 847.627 1478.93 847.627C1478.01 847.627 1477.29 848.119 1476.77 849.102C1476.25 850.073 1475.99 851.569 1475.99 853.59ZM1478.93 859.553C1479.86 859.553 1480.59 859.068 1481.11 858.097C1481.63 857.113 1481.89 855.611 1481.89 853.59C1481.89 851.875 1481.72 850.545 1481.39 849.601L1476.95 858.516C1477.43 859.207 1478.09 859.553 1478.93 859.553Z" fill="url(#paint54_linear_122_130)"/>
<path d="M1478.93 869.342C1480.36 869.342 1481.44 869.947 1482.17 871.157C1482.92 872.354 1483.29 874.096 1483.29 876.383C1483.29 878.669 1482.92 880.418 1482.17 881.628C1481.44 882.838 1480.36 883.443 1478.93 883.443C1477.52 883.443 1476.44 882.838 1475.69 881.628C1474.94 880.418 1474.57 878.669 1474.57 876.383C1474.57 874.109 1474.94 872.367 1475.69 871.157C1476.44 869.947 1477.52 869.342 1478.93 869.342ZM1475.99 876.383C1475.99 878.005 1476.14 879.274 1476.43 880.192L1480.87 871.357C1480.4 870.732 1479.76 870.419 1478.93 870.419C1478.01 870.419 1477.29 870.911 1476.77 871.895C1476.25 872.866 1475.99 874.362 1475.99 876.383ZM1478.93 882.346C1479.86 882.346 1480.59 881.86 1481.11 880.89C1481.63 879.906 1481.89 878.404 1481.89 876.383C1481.89 874.667 1481.72 873.338 1481.39 872.394L1476.95 881.309C1477.43 882 1478.09 882.346 1478.93 882.346Z" fill="url(#paint55_linear_122_130)"/>
<path d="M1480.13 904.979H1483.07V906.036H1475.45V904.979H1478.85V893.771L1475.61 895.705L1475.05 894.808L1479.05 892.335H1480.13V904.979Z" fill="url(#paint56_linear_122_130)"/>
<path d="M1478.93 914.928C1480.36 914.928 1481.44 915.533 1482.17 916.743C1482.92 917.94 1483.29 919.681 1483.29 921.968C1483.29 924.255 1482.92 926.003 1482.17 927.213C1481.44 928.423 1480.36 929.028 1478.93 929.028C1477.52 929.028 1476.44 928.423 1475.69 927.213C1474.94 926.003 1474.57 924.255 1474.57 921.968C1474.57 919.695 1474.94 917.953 1475.69 916.743C1476.44 915.533 1477.52 914.928 1478.93 914.928ZM1475.99 921.968C1475.99 923.59 1476.14 924.86 1476.43 925.777L1480.87 916.942C1480.4 916.317 1479.76 916.005 1478.93 916.005C1478.01 916.005 1477.29 916.497 1476.77 917.481C1476.25 918.451 1475.99 919.947 1475.99 921.968ZM1478.93 927.931C1479.86 927.931 1480.59 927.446 1481.11 926.475C1481.63 925.492 1481.89 923.989 1481.89 921.968C1481.89 920.253 1481.72 918.923 1481.39 917.979L1476.95 926.894C1477.43 927.586 1478.09 927.931 1478.93 927.931Z" fill="url(#paint57_linear_122_130)"/>
<path d="M1480.13 950.565H1483.07V951.622H1475.45V950.565H1478.85V939.356L1475.61 941.291L1475.05 940.393L1479.05 937.92H1480.13V950.565Z" fill="url(#paint58_linear_122_130)"/>
<path d="M1480.13 973.357H1483.07V974.414H1475.45V973.357H1478.85V962.149L1475.61 964.084L1475.05 963.186L1479.05 960.713H1480.13V973.357Z" fill="url(#paint59_linear_122_130)"/>
<path d="M1516.07 732.586C1517.5 732.586 1518.58 733.191 1519.31 734.4C1520.06 735.597 1520.43 737.339 1520.43 739.626C1520.43 741.913 1520.06 743.661 1519.31 744.871C1518.58 746.081 1517.5 746.686 1516.07 746.686C1514.66 746.686 1513.58 746.081 1512.83 744.871C1512.08 743.661 1511.71 741.913 1511.71 739.626C1511.71 737.352 1512.08 735.61 1512.83 734.4C1513.58 733.191 1514.66 732.586 1516.07 732.586ZM1513.13 739.626C1513.13 741.248 1513.28 742.518 1513.57 743.435L1518.01 734.6C1517.54 733.975 1516.9 733.663 1516.07 733.663C1515.15 733.663 1514.43 734.155 1513.91 735.138C1513.39 736.109 1513.13 737.605 1513.13 739.626ZM1516.07 745.589C1517 745.589 1517.73 745.104 1518.25 744.133C1518.77 743.149 1519.03 741.647 1519.03 739.626C1519.03 737.911 1518.86 736.581 1518.53 735.637L1514.09 744.552C1514.57 745.243 1515.23 745.589 1516.07 745.589Z" fill="url(#paint60_linear_122_130)"/>
<path d="M1517.27 768.222H1520.21V769.279H1512.59V768.222H1515.99V757.014L1512.75 758.948L1512.19 758.051L1516.19 755.578H1517.27V768.222Z" fill="url(#paint61_linear_122_130)"/>
<path d="M1516.07 778.171C1517.5 778.171 1518.58 778.776 1519.31 779.986C1520.06 781.183 1520.43 782.924 1520.43 785.211C1520.43 787.498 1520.06 789.247 1519.31 790.457C1518.58 791.666 1517.5 792.271 1516.07 792.271C1514.66 792.271 1513.58 791.666 1512.83 790.457C1512.08 789.247 1511.71 787.498 1511.71 785.211C1511.71 782.938 1512.08 781.196 1512.83 779.986C1513.58 778.776 1514.66 778.171 1516.07 778.171ZM1513.13 785.211C1513.13 786.833 1513.28 788.103 1513.57 789.021L1518.01 780.186C1517.54 779.561 1516.9 779.248 1516.07 779.248C1515.15 779.248 1514.43 779.74 1513.91 780.724C1513.39 781.695 1513.13 783.19 1513.13 785.211ZM1516.07 791.174C1517 791.174 1517.73 790.689 1518.25 789.719C1518.77 788.735 1519.03 787.232 1519.03 785.211C1519.03 783.496 1518.86 782.167 1518.53 781.223L1514.09 790.137C1514.57 790.829 1515.23 791.174 1516.07 791.174Z" fill="url(#paint62_linear_122_130)"/>
<path d="M1516.07 800.964C1517.5 800.964 1518.58 801.569 1519.31 802.779C1520.06 803.976 1520.43 805.717 1520.43 808.004C1520.43 810.291 1520.06 812.039 1519.31 813.249C1518.58 814.459 1517.5 815.064 1516.07 815.064C1514.66 815.064 1513.58 814.459 1512.83 813.249C1512.08 812.039 1511.71 810.291 1511.71 808.004C1511.71 805.731 1512.08 803.989 1512.83 802.779C1513.58 801.569 1514.66 800.964 1516.07 800.964ZM1513.13 808.004C1513.13 809.626 1513.28 810.896 1513.57 811.813L1518.01 802.978C1517.54 802.353 1516.9 802.041 1516.07 802.041C1515.15 802.041 1514.43 802.533 1513.91 803.517C1513.39 804.487 1513.13 805.983 1513.13 808.004ZM1516.07 813.967C1517 813.967 1517.73 813.482 1518.25 812.511C1518.77 811.528 1519.03 810.025 1519.03 808.004C1519.03 806.289 1518.86 804.959 1518.53 804.015L1514.09 812.93C1514.57 813.622 1515.23 813.967 1516.07 813.967Z" fill="url(#paint63_linear_122_130)"/>
<path d="M1517.27 836.601H1520.21V837.658H1512.59V836.601H1515.99V825.392L1512.75 827.327L1512.19 826.429L1516.19 823.956H1517.27V836.601Z" fill="url(#paint64_linear_122_130)"/>
<path d="M1516.07 846.55C1517.5 846.55 1518.58 847.155 1519.31 848.365C1520.06 849.561 1520.43 851.303 1520.43 853.59C1520.43 855.877 1520.06 857.625 1519.31 858.835C1518.58 860.045 1517.5 860.65 1516.07 860.65C1514.66 860.65 1513.58 860.045 1512.83 858.835C1512.08 857.625 1511.71 855.877 1511.71 853.59C1511.71 851.316 1512.08 849.574 1512.83 848.365C1513.58 847.155 1514.66 846.55 1516.07 846.55ZM1513.13 853.59C1513.13 855.212 1513.28 856.482 1513.57 857.399L1518.01 848.564C1517.54 847.939 1516.9 847.627 1516.07 847.627C1515.15 847.627 1514.43 848.119 1513.91 849.102C1513.39 850.073 1513.13 851.569 1513.13 853.59ZM1516.07 859.553C1517 859.553 1517.73 859.068 1518.25 858.097C1518.77 857.113 1519.03 855.611 1519.03 853.59C1519.03 851.875 1518.86 850.545 1518.53 849.601L1514.09 858.516C1514.57 859.207 1515.23 859.553 1516.07 859.553Z" fill="url(#paint65_linear_122_130)"/>
<path d="M1517.27 882.186H1520.21V883.243H1512.59V882.186H1515.99V870.978L1512.75 872.912L1512.19 872.015L1516.19 869.542H1517.27V882.186Z" fill="url(#paint66_linear_122_130)"/>
<path d="M1516.07 892.135C1517.5 892.135 1518.58 892.74 1519.31 893.95C1520.06 895.147 1520.43 896.888 1520.43 899.175C1520.43 901.462 1520.06 903.211 1519.31 904.421C1518.58 905.63 1517.5 906.235 1516.07 906.235C1514.66 906.235 1513.58 905.63 1512.83 904.421C1512.08 903.211 1511.71 901.462 1511.71 899.175C1511.71 896.902 1512.08 895.16 1512.83 893.95C1513.58 892.74 1514.66 892.135 1516.07 892.135ZM1513.13 899.175C1513.13 900.797 1513.28 902.067 1513.57 902.985L1518.01 894.15C1517.54 893.525 1516.9 893.212 1516.07 893.212C1515.15 893.212 1514.43 893.704 1513.91 894.688C1513.39 895.659 1513.13 897.154 1513.13 899.175ZM1516.07 905.139C1517 905.139 1517.73 904.653 1518.25 903.683C1518.77 902.699 1519.03 901.196 1519.03 899.175C1519.03 897.46 1518.86 896.131 1518.53 895.187L1514.09 904.101C1514.57 904.793 1515.23 905.139 1516.07 905.139Z" fill="url(#paint67_linear_122_130)"/>
<path d="M1516.07 914.928C1517.5 914.928 1518.58 915.533 1519.31 916.743C1520.06 917.94 1520.43 919.681 1520.43 921.968C1520.43 924.255 1520.06 926.003 1519.31 927.213C1518.58 928.423 1517.5 929.028 1516.07 929.028C1514.66 929.028 1513.58 928.423 1512.83 927.213C1512.08 926.003 1511.71 924.255 1511.71 921.968C1511.71 919.695 1512.08 917.953 1512.83 916.743C1513.58 915.533 1514.66 914.928 1516.07 914.928ZM1513.13 921.968C1513.13 923.59 1513.28 924.86 1513.57 925.777L1518.01 916.942C1517.54 916.317 1516.9 916.005 1516.07 916.005C1515.15 916.005 1514.43 916.497 1513.91 917.481C1513.39 918.451 1513.13 919.947 1513.13 921.968ZM1516.07 927.931C1517 927.931 1517.73 927.446 1518.25 926.475C1518.77 925.492 1519.03 923.989 1519.03 921.968C1519.03 920.253 1518.86 918.923 1518.53 917.979L1514.09 926.894C1514.57 927.586 1515.23 927.931 1516.07 927.931Z" fill="url(#paint68_linear_122_130)"/>
<path d="M1517.27 950.565H1520.21V951.622H1512.59V950.565H1515.99V939.356L1512.75 941.291L1512.19 940.393L1516.19 937.92H1517.27V950.565Z" fill="url(#paint69_linear_122_130)"/>
<path d="M1516.07 960.514C1517.5 960.514 1518.58 961.119 1519.31 962.329C1520.06 963.525 1520.43 965.267 1520.43 967.554C1520.43 969.841 1520.06 971.589 1519.31 972.799C1518.58 974.009 1517.5 974.614 1516.07 974.614C1514.66 974.614 1513.58 974.009 1512.83 972.799C1512.08 971.589 1511.71 969.841 1511.71 967.554C1511.71 965.28 1512.08 963.538 1512.83 962.329C1513.58 961.119 1514.66 960.514 1516.07 960.514ZM1513.13 967.554C1513.13 969.176 1513.28 970.446 1513.57 971.363L1518.01 962.528C1517.54 961.903 1516.9 961.591 1516.07 961.591C1515.15 961.591 1514.43 962.083 1513.91 963.066C1513.39 964.037 1513.13 965.533 1513.13 967.554ZM1516.07 973.517C1517 973.517 1517.73 973.032 1518.25 972.061C1518.77 971.077 1519.03 969.575 1519.03 967.554C1519.03 965.839 1518.86 964.509 1518.53 963.565L1514.09 972.48C1514.57 973.171 1515.23 973.517 1516.07 973.517Z" fill="url(#paint70_linear_122_130)"/>
<path d="M1517.27 996.15H1520.21V997.207H1512.59V996.15H1515.99V984.942L1512.75 986.876L1512.19 985.979L1516.19 983.506H1517.27V996.15Z" fill="url(#paint71_linear_122_130)"/>
<path d="M1517.27 1018.94H1520.21V1020H1512.59V1018.94H1515.99V1007.73L1512.75 1009.67L1512.19 1008.77L1516.19 1006.3H1517.27V1018.94Z" fill="url(#paint72_linear_122_130)"/>
<path d="M1460.36 755.378C1461.79 755.378 1462.87 755.983 1463.6 757.193C1464.35 758.39 1464.72 760.132 1464.72 762.419C1464.72 764.705 1464.35 766.454 1463.6 767.664C1462.87 768.874 1461.79 769.479 1460.36 769.479C1458.95 769.479 1457.87 768.874 1457.12 767.664C1456.37 766.454 1456 764.705 1456 762.419C1456 760.145 1456.37 758.403 1457.12 757.193C1457.87 755.983 1458.95 755.378 1460.36 755.378ZM1457.42 762.419C1457.42 764.041 1457.57 765.31 1457.86 766.228L1462.3 757.393C1461.83 756.768 1461.19 756.455 1460.36 756.455C1459.44 756.455 1458.72 756.947 1458.2 757.931C1457.68 758.902 1457.42 760.398 1457.42 762.419ZM1460.36 768.382C1461.29 768.382 1462.02 767.896 1462.54 766.926C1463.06 765.942 1463.32 764.44 1463.32 762.419C1463.32 760.703 1463.15 759.374 1462.82 758.43L1458.38 767.345C1458.86 768.036 1459.52 768.382 1460.36 768.382Z" fill="url(#paint73_linear_122_130)"/>
<path d="M1460.36 778.171C1461.79 778.171 1462.87 778.776 1463.6 779.986C1464.35 781.183 1464.72 782.924 1464.72 785.211C1464.72 787.498 1464.35 789.247 1463.6 790.457C1462.87 791.666 1461.79 792.271 1460.36 792.271C1458.95 792.271 1457.87 791.666 1457.12 790.457C1456.37 789.247 1456 787.498 1456 785.211C1456 782.938 1456.37 781.196 1457.12 779.986C1457.87 778.776 1458.95 778.171 1460.36 778.171ZM1457.42 785.211C1457.42 786.833 1457.57 788.103 1457.86 789.021L1462.3 780.186C1461.83 779.561 1461.19 779.248 1460.36 779.248C1459.44 779.248 1458.72 779.74 1458.2 780.724C1457.68 781.695 1457.42 783.19 1457.42 785.211ZM1460.36 791.174C1461.29 791.174 1462.02 790.689 1462.54 789.719C1463.06 788.735 1463.32 787.232 1463.32 785.211C1463.32 783.496 1463.15 782.167 1462.82 781.223L1458.38 790.137C1458.86 790.829 1459.52 791.174 1460.36 791.174Z" fill="url(#paint74_linear_122_130)"/>
<path d="M1461.56 813.808H1464.5V814.865H1456.88V813.808H1460.28V802.599L1457.04 804.534L1456.48 803.636L1460.48 801.163H1461.56V813.808Z" fill="url(#paint75_linear_122_130)"/>
<path d="M1460.36 823.757C1461.79 823.757 1462.87 824.362 1463.6 825.572C1464.35 826.768 1464.72 828.51 1464.72 830.797C1464.72 833.084 1464.35 834.832 1463.6 836.042C1462.87 837.252 1461.79 837.857 1460.36 837.857C1458.95 837.857 1457.87 837.252 1457.12 836.042C1456.37 834.832 1456 833.084 1456 830.797C1456 828.523 1456.37 826.782 1457.12 825.572C1457.87 824.362 1458.95 823.757 1460.36 823.757ZM1457.42 830.797C1457.42 832.419 1457.57 833.689 1457.86 834.606L1462.3 825.771C1461.83 825.146 1461.19 824.834 1460.36 824.834C1459.44 824.834 1458.72 825.326 1458.2 826.31C1457.68 827.28 1457.42 828.776 1457.42 830.797ZM1460.36 836.76C1461.29 836.76 1462.02 836.275 1462.54 835.304C1463.06 834.32 1463.32 832.818 1463.32 830.797C1463.32 829.082 1463.15 827.752 1462.82 826.808L1458.38 835.723C1458.86 836.414 1459.52 836.76 1460.36 836.76Z" fill="url(#paint76_linear_122_130)"/>
<path d="M1461.56 859.393H1464.5V860.45H1456.88V859.393H1460.28V848.185L1457.04 850.12L1456.48 849.222L1460.48 846.749H1461.56V859.393Z" fill="url(#paint77_linear_122_130)"/>
<path d="M1461.56 882.186H1464.5V883.243H1456.88V882.186H1460.28V870.978L1457.04 872.912L1456.48 872.015L1460.48 869.542H1461.56V882.186Z" fill="url(#paint78_linear_122_130)"/>
<path d="M1498.7 722.637H1501.64V723.694H1494.02V722.637H1497.42V711.428L1494.18 713.363L1493.62 712.465L1497.62 709.992H1498.7V722.637Z" fill="url(#paint79_linear_122_130)"/>
<path d="M1497.5 732.586C1498.93 732.586 1500.01 733.191 1500.74 734.4C1501.49 735.597 1501.86 737.339 1501.86 739.626C1501.86 741.913 1501.49 743.661 1500.74 744.871C1500.01 746.081 1498.93 746.686 1497.5 746.686C1496.09 746.686 1495.01 746.081 1494.26 744.871C1493.51 743.661 1493.14 741.913 1493.14 739.626C1493.14 737.352 1493.51 735.61 1494.26 734.4C1495.01 733.191 1496.09 732.586 1497.5 732.586ZM1494.56 739.626C1494.56 741.248 1494.71 742.518 1495 743.435L1499.44 734.6C1498.97 733.975 1498.33 733.663 1497.5 733.663C1496.58 733.663 1495.86 734.155 1495.34 735.138C1494.82 736.109 1494.56 737.605 1494.56 739.626ZM1497.5 745.589C1498.43 745.589 1499.16 745.104 1499.68 744.133C1500.2 743.149 1500.46 741.647 1500.46 739.626C1500.46 737.911 1500.29 736.581 1499.96 735.637L1495.52 744.552C1496 745.243 1496.66 745.589 1497.5 745.589Z" fill="url(#paint80_linear_122_130)"/>
<path d="M1498.7 768.222H1501.64V769.279H1494.02V768.222H1497.42V757.014L1494.18 758.948L1493.62 758.051L1497.62 755.578H1498.7V768.222Z" fill="url(#paint81_linear_122_130)"/>
<path d="M1498.7 791.015H1501.64V792.072H1494.02V791.015H1497.42V779.807L1494.18 781.741L1493.62 780.844L1497.62 778.371H1498.7V791.015Z" fill="url(#paint82_linear_122_130)"/>
<path d="M1497.5 800.964C1498.93 800.964 1500.01 801.569 1500.74 802.779C1501.49 803.976 1501.86 805.717 1501.86 808.004C1501.86 810.291 1501.49 812.039 1500.74 813.249C1500.01 814.459 1498.93 815.064 1497.5 815.064C1496.09 815.064 1495.01 814.459 1494.26 813.249C1493.51 812.039 1493.14 810.291 1493.14 808.004C1493.14 805.731 1493.51 803.989 1494.26 802.779C1495.01 801.569 1496.09 800.964 1497.5 800.964ZM1494.56 808.004C1494.56 809.626 1494.71 810.896 1495 811.813L1499.44 802.978C1498.97 802.353 1498.33 802.041 1497.5 802.041C1496.58 802.041 1495.86 802.533 1495.34 803.517C1494.82 804.487 1494.56 805.983 1494.56 808.004ZM1497.5 813.967C1498.43 813.967 1499.16 813.482 1499.68 812.511C1500.2 811.528 1500.46 810.025 1500.46 808.004C1500.46 806.289 1500.29 804.959 1499.96 804.015L1495.52 812.93C1496 813.622 1496.66 813.967 1497.5 813.967Z" fill="url(#paint83_linear_122_130)"/>
<path d="M1498.7 836.601H1501.64V837.658H1494.02V836.601H1497.42V825.392L1494.18 827.327L1493.62 826.429L1497.62 823.956H1498.7V836.601Z" fill="url(#paint84_linear_122_130)"/>
<path d="M1498.7 859.393H1501.64V860.45H1494.02V859.393H1497.42V848.185L1494.18 850.12L1493.62 849.222L1497.62 846.749H1498.7V859.393Z" fill="url(#paint85_linear_122_130)"/>
<path d="M1497.5 869.342C1498.93 869.342 1500.01 869.947 1500.74 871.157C1501.49 872.354 1501.86 874.096 1501.86 876.383C1501.86 878.669 1501.49 880.418 1500.74 881.628C1500.01 882.838 1498.93 883.443 1497.5 883.443C1496.09 883.443 1495.01 882.838 1494.26 881.628C1493.51 880.418 1493.14 878.669 1493.14 876.383C1493.14 874.109 1493.51 872.367 1494.26 871.157C1495.01 869.947 1496.09 869.342 1497.5 869.342ZM1494.56 876.383C1494.56 878.005 1494.71 879.274 1495 880.192L1499.44 871.357C1498.97 870.732 1498.33 870.419 1497.5 870.419C1496.58 870.419 1495.86 870.911 1495.34 871.895C1494.82 872.866 1494.56 874.362 1494.56 876.383ZM1497.5 882.346C1498.43 882.346 1499.16 881.86 1499.68 880.89C1500.2 879.906 1500.46 878.404 1500.46 876.383C1500.46 874.667 1500.29 873.338 1499.96 872.394L1495.52 881.309C1496 882 1496.66 882.346 1497.5 882.346Z" fill="url(#paint86_linear_122_130)"/>
<path d="M1498.7 904.979H1501.64V906.036H1494.02V904.979H1497.42V893.771L1494.18 895.705L1493.62 894.808L1497.62 892.335H1498.7V904.979Z" fill="url(#paint87_linear_122_130)"/>
<path d="M1497.5 914.928C1498.93 914.928 1500.01 915.533 1500.74 916.743C1501.49 917.94 1501.86 919.681 1501.86 921.968C1501.86 924.255 1501.49 926.003 1500.74 927.213C1500.01 928.423 1498.93 929.028 1497.5 929.028C1496.09 929.028 1495.01 928.423 1494.26 927.213C1493.51 926.003 1493.14 924.255 1493.14 921.968C1493.14 919.695 1493.51 917.953 1494.26 916.743C1495.01 915.533 1496.09 914.928 1497.5 914.928ZM1494.56 921.968C1494.56 923.59 1494.71 924.86 1495 925.777L1499.44 916.942C1498.97 916.317 1498.33 916.005 1497.5 916.005C1496.58 916.005 1495.86 916.497 1495.34 917.481C1494.82 918.451 1494.56 919.947 1494.56 921.968ZM1497.5 927.931C1498.43 927.931 1499.16 927.446 1499.68 926.475C1500.2 925.492 1500.46 923.989 1500.46 921.968C1500.46 920.253 1500.29 918.923 1499.96 917.979L1495.52 926.894C1496 927.586 1496.66 927.931 1497.5 927.931Z" fill="url(#paint88_linear_122_130)"/>
<path d="M1534.64 709.793C1536.07 709.793 1537.15 710.398 1537.88 711.608C1538.63 712.804 1539 714.546 1539 716.833C1539 719.12 1538.63 720.868 1537.88 722.078C1537.15 723.288 1536.07 723.893 1534.64 723.893C1533.23 723.893 1532.15 723.288 1531.4 722.078C1530.65 720.868 1530.28 719.12 1530.28 716.833C1530.28 714.559 1530.65 712.818 1531.4 711.608C1532.15 710.398 1533.23 709.793 1534.64 709.793ZM1531.7 716.833C1531.7 718.455 1531.85 719.725 1532.14 720.642L1536.58 711.807C1536.11 711.182 1535.47 710.87 1534.64 710.87C1533.72 710.87 1533 711.362 1532.48 712.346C1531.96 713.316 1531.7 714.812 1531.7 716.833ZM1534.64 722.796C1535.57 722.796 1536.3 722.311 1536.82 721.34C1537.34 720.356 1537.6 718.854 1537.6 716.833C1537.6 715.118 1537.43 713.788 1537.1 712.844L1532.66 721.759C1533.14 722.45 1533.8 722.796 1534.64 722.796Z" fill="url(#paint89_linear_122_130)"/>
<path d="M1535.84 745.429H1538.78V746.486H1531.16V745.429H1534.56V734.221L1531.32 736.156L1530.76 735.258L1534.76 732.785H1535.84V745.429Z" fill="url(#paint90_linear_122_130)"/>
<path d="M1535.84 768.222H1538.78V769.279H1531.16V768.222H1534.56V757.014L1531.32 758.948L1530.76 758.051L1534.76 755.578H1535.84V768.222Z" fill="url(#paint91_linear_122_130)"/>
<path d="M1534.64 778.171C1536.07 778.171 1537.15 778.776 1537.88 779.986C1538.63 781.183 1539 782.924 1539 785.211C1539 787.498 1538.63 789.247 1537.88 790.457C1537.15 791.666 1536.07 792.271 1534.64 792.271C1533.23 792.271 1532.15 791.666 1531.4 790.457C1530.65 789.247 1530.28 787.498 1530.28 785.211C1530.28 782.938 1530.65 781.196 1531.4 779.986C1532.15 778.776 1533.23 778.171 1534.64 778.171ZM1531.7 785.211C1531.7 786.833 1531.85 788.103 1532.14 789.021L1536.58 780.186C1536.11 779.561 1535.47 779.248 1534.64 779.248C1533.72 779.248 1533 779.74 1532.48 780.724C1531.96 781.695 1531.7 783.19 1531.7 785.211ZM1534.64 791.174C1535.57 791.174 1536.3 790.689 1536.82 789.719C1537.34 788.735 1537.6 787.232 1537.6 785.211C1537.6 783.496 1537.43 782.167 1537.1 781.223L1532.66 790.137C1533.14 790.829 1533.8 791.174 1534.64 791.174Z" fill="url(#paint92_linear_122_130)"/>
<path d="M1534.64 800.964C1536.07 800.964 1537.15 801.569 1537.88 802.779C1538.63 803.976 1539 805.717 1539 808.004C1539 810.291 1538.63 812.039 1537.88 813.249C1537.15 814.459 1536.07 815.064 1534.64 815.064C1533.23 815.064 1532.15 814.459 1531.4 813.249C1530.65 812.039 1530.28 810.291 1530.28 808.004C1530.28 805.731 1530.65 803.989 1531.4 802.779C1532.15 801.569 1533.23 800.964 1534.64 800.964ZM1531.7 808.004C1531.7 809.626 1531.85 810.896 1532.14 811.813L1536.58 802.978C1536.11 802.353 1535.47 802.041 1534.64 802.041C1533.72 802.041 1533 802.533 1532.48 803.517C1531.96 804.487 1531.7 805.983 1531.7 808.004ZM1534.64 813.967C1535.57 813.967 1536.3 813.482 1536.82 812.511C1537.34 811.528 1537.6 810.025 1537.6 808.004C1537.6 806.289 1537.43 804.959 1537.1 804.015L1532.66 812.93C1533.14 813.622 1533.8 813.967 1534.64 813.967Z" fill="url(#paint93_linear_122_130)"/>
</g>
<defs>
<filter id="filter0_f_122_130" x="0.809998" y="0.809998" width="2141.38" height="1500.38" filterUnits="userSpaceOnUse" color-interpolation-filters="sRGB">
<feFlood flood-opacity="0" result="BackgroundImageFix"/>
<feBlend mode="normal" in="SourceGraphic" in2="BackgroundImageFix" result="shape"/>
<feGaussianBlur stdDeviation="200.095" result="effect1_foregroundBlur_122_130"/>
</filter>
<linearGradient id="paint0_linear_122_130" x1="611.5" y1="987" x2="611.5" y2="1298.38" gradientUnits="userSpaceOnUse">
<stop stop-color="#F7DD43"/>
<stop offset="1" stop-color="#F7DD43" stop-opacity="0"/>
</linearGradient>
<linearGradient id="paint1_linear_122_130" x1="611.5" y1="987" x2="611.5" y2="1298.38" gradientUnits="userSpaceOnUse">
<stop stop-color="#F7DD43"/>
<stop offset="1" stop-color="#F7DD43" stop-opacity="0"/>
</linearGradient>
<linearGradient id="paint2_linear_122_130" x1="611.5" y1="987" x2="611.5" y2="1298.38" gradientUnits="userSpaceOnUse">
<stop stop-color="#F7DD43"/>
<stop offset="1" stop-color="#F7DD43" stop-opacity="0"/>
</linearGradient>
<linearGradient id="paint3_linear_122_130" x1="611.5" y1="987" x2="611.5" y2="1298.38" gradientUnits="userSpaceOnUse">
<stop stop-color="#F7DD43"/>
<stop offset="1" stop-color="#F7DD43" stop-opacity="0"/>
</linearGradient>
<linearGradient id="paint4_linear_122_130" x1="611.5" y1="987" x2="611.5" y2="1298.38" gradientUnits="userSpaceOnUse">
<stop stop-color="#F7DD43"/>
<stop offset="1" stop-color="#F7DD43" stop-opacity="0"/>
</linearGradient>
<linearGradient id="paint5_linear_122_130" x1="611.5" y1="987" x2="611.5" y2="1298.38" gradientUnits="userSpaceOnUse">
<stop stop-color="#F7DD43"/>
<stop offset="1" stop-color="#F7DD43" stop-opacity="0"/>
</linearGradient>
<linearGradient id="paint6_linear_122_130" x1="611.5" y1="987" x2="611.5" y2="1298.38" gradientUnits="userSpaceOnUse">
<stop stop-color="#F7DD43"/>
<stop offset="1" stop-color="#F7DD43" stop-opacity="0"/>
</linearGradient>
<linearGradient id="paint7_linear_122_130" x1="611.5" y1="987" x2="611.5" y2="1298.38" gradientUnits="userSpaceOnUse">
<stop stop-color="#F7DD43"/>
<stop offset="1" stop-color="#F7DD43" stop-opacity="0"/>
</linearGradient>
<linearGradient id="paint8_linear_122_130" x1="611.5" y1="987" x2="611.5" y2="1298.38" gradientUnits="userSpaceOnUse">
<stop stop-color="#F7DD43"/>
<stop offset="1" stop-color="#F7DD43" stop-opacity="0"/>
</linearGradient>
<linearGradient id="paint9_linear_122_130" x1="611.5" y1="987" x2="611.5" y2="1298.38" gradientUnits="userSpaceOnUse">
<stop stop-color="#F7DD43"/>
<stop offset="1" stop-color="#F7DD43" stop-opacity="0"/>
</linearGradient>
<linearGradient id="paint10_linear_122_130" x1="611.5" y1="987" x2="611.5" y2="1298.38" gradientUnits="userSpaceOnUse">
<stop stop-color="#F7DD43"/>
<stop offset="1" stop-color="#F7DD43" stop-opacity="0"/>
</linearGradient>
<linearGradient id="paint11_linear_122_130" x1="611.5" y1="987" x2="611.5" y2="1298.38" gradientUnits="userSpaceOnUse">
<stop stop-color="#F7DD43"/>
<stop offset="1" stop-color="#F7DD43" stop-opacity="0"/>
</linearGradient>
<linearGradient id="paint12_linear_122_130" x1="611.5" y1="987" x2="611.5" y2="1298.38" gradientUnits="userSpaceOnUse">
<stop stop-color="#F7DD43"/>
<stop offset="1" stop-color="#F7DD43" stop-opacity="0"/>
</linearGradient>
<linearGradient id="paint13_linear_122_130" x1="611.5" y1="987" x2="611.5" y2="1298.38" gradientUnits="userSpaceOnUse">
<stop stop-color="#F7DD43"/>
<stop offset="1" stop-color="#F7DD43" stop-opacity="0"/>
</linearGradient>
<linearGradient id="paint14_linear_122_130" x1="611.5" y1="987" x2="611.5" y2="1298.38" gradientUnits="userSpaceOnUse">
<stop stop-color="#F7DD43"/>
<stop offset="1" stop-color="#F7DD43" stop-opacity="0"/>
</linearGradient>
<linearGradient id="paint15_linear_122_130" x1="611.5" y1="987" x2="611.5" y2="1298.38" gradientUnits="userSpaceOnUse">
<stop stop-color="#F7DD43"/>
<stop offset="1" stop-color="#F7DD43" stop-opacity="0"/>
</linearGradient>
<linearGradient id="paint16_linear_122_130" x1="611.5" y1="987" x2="611.5" y2="1298.38" gradientUnits="userSpaceOnUse">
<stop stop-color="#F7DD43"/>
<stop offset="1" stop-color="#F7DD43" stop-opacity="0"/>
</linearGradient>
<linearGradient id="paint17_linear_122_130" x1="611.5" y1="987" x2="611.5" y2="1298.38" gradientUnits="userSpaceOnUse">
<stop stop-color="#F7DD43"/>
<stop offset="1" stop-color="#F7DD43" stop-opacity="0"/>
</linearGradient>
<linearGradient id="paint18_linear_122_130" x1="611.5" y1="987" x2="611.5" y2="1298.38" gradientUnits="userSpaceOnUse">
<stop stop-color="#F7DD43"/>
<stop offset="1" stop-color="#F7DD43" stop-opacity="0"/>
</linearGradient>
<linearGradient id="paint19_linear_122_130" x1="611.5" y1="987" x2="611.5" y2="1298.38" gradientUnits="userSpaceOnUse">
<stop stop-color="#F7DD43"/>
<stop offset="1" stop-color="#F7DD43" stop-opacity="0"/>
</linearGradient>
<linearGradient id="paint20_linear_122_130" x1="611.5" y1="987" x2="611.5" y2="1298.38" gradientUnits="userSpaceOnUse">
<stop stop-color="#F7DD43"/>
<stop offset="1" stop-color="#F7DD43" stop-opacity="0"/>
</linearGradient>
<linearGradient id="paint21_linear_122_130" x1="611.5" y1="987" x2="611.5" y2="1298.38" gradientUnits="userSpaceOnUse">
<stop stop-color="#F7DD43"/>
<stop offset="1" stop-color="#F7DD43" stop-opacity="0"/>
</linearGradient>
<linearGradient id="paint22_linear_122_130" x1="611.5" y1="987" x2="611.5" y2="1298.38" gradientUnits="userSpaceOnUse">
<stop stop-color="#F7DD43"/>
<stop offset="1" stop-color="#F7DD43" stop-opacity="0"/>
</linearGradient>
<linearGradient id="paint23_linear_122_130" x1="611.5" y1="987" x2="611.5" y2="1298.38" gradientUnits="userSpaceOnUse">
<stop stop-color="#F7DD43"/>
<stop offset="1" stop-color="#F7DD43" stop-opacity="0"/>
</linearGradient>
<linearGradient id="paint24_linear_122_130" x1="611.5" y1="987" x2="611.5" y2="1298.38" gradientUnits="userSpaceOnUse">
<stop stop-color="#F7DD43"/>
<stop offset="1" stop-color="#F7DD43" stop-opacity="0"/>
</linearGradient>
<linearGradient id="paint25_linear_122_130" x1="611.5" y1="987" x2="611.5" y2="1298.38" gradientUnits="userSpaceOnUse">
<stop stop-color="#F7DD43"/>
<stop offset="1" stop-color="#F7DD43" stop-opacity="0"/>
</linearGradient>
<linearGradient id="paint26_linear_122_130" x1="611.5" y1="987" x2="611.5" y2="1298.38" gradientUnits="userSpaceOnUse">
<stop stop-color="#F7DD43"/>
<stop offset="1" stop-color="#F7DD43" stop-opacity="0"/>
</linearGradient>
<linearGradient id="paint27_linear_122_130" x1="611.5" y1="987" x2="611.5" y2="1298.38" gradientUnits="userSpaceOnUse">
<stop stop-color="#F7DD43"/>
<stop offset="1" stop-color="#F7DD43" stop-opacity="0"/>
</linearGradient>
<linearGradient id="paint28_linear_122_130" x1="611.5" y1="987" x2="611.5" y2="1298.38" gradientUnits="userSpaceOnUse">
<stop stop-color="#F7DD43"/>
<stop offset="1" stop-color="#F7DD43" stop-opacity="0"/>
</linearGradient>
<linearGradient id="paint29_linear_122_130" x1="611.5" y1="987" x2="611.5" y2="1298.38" gradientUnits="userSpaceOnUse">
<stop stop-color="#F7DD43"/>
<stop offset="1" stop-color="#F7DD43" stop-opacity="0"/>
</linearGradient>
<linearGradient id="paint30_linear_122_130" x1="611.5" y1="987" x2="611.5" y2="1298.38" gradientUnits="userSpaceOnUse">
<stop stop-color="#F7DD43"/>
<stop offset="1" stop-color="#F7DD43" stop-opacity="0"/>
</linearGradient>
<linearGradient id="paint31_linear_122_130" x1="611.5" y1="987" x2="611.5" y2="1298.38" gradientUnits="userSpaceOnUse">
<stop stop-color="#F7DD43"/>
<stop offset="1" stop-color="#F7DD43" stop-opacity="0"/>
</linearGradient>
<linearGradient id="paint32_linear_122_130" x1="611.5" y1="987" x2="611.5" y2="1298.38" gradientUnits="userSpaceOnUse">
<stop stop-color="#F7DD43"/>
<stop offset="1" stop-color="#F7DD43" stop-opacity="0"/>
</linearGradient>
<linearGradient id="paint33_linear_122_130" x1="611.5" y1="987" x2="611.5" y2="1298.38" gradientUnits="userSpaceOnUse">
<stop stop-color="#F7DD43"/>
<stop offset="1" stop-color="#F7DD43" stop-opacity="0"/>
</linearGradient>
<linearGradient id="paint34_linear_122_130" x1="611.5" y1="987" x2="611.5" y2="1298.38" gradientUnits="userSpaceOnUse">
<stop stop-color="#F7DD43"/>
<stop offset="1" stop-color="#F7DD43" stop-opacity="0"/>
</linearGradient>
<linearGradient id="paint35_linear_122_130" x1="611.5" y1="987" x2="611.5" y2="1298.38" gradientUnits="userSpaceOnUse">
<stop stop-color="#F7DD43"/>
<stop offset="1" stop-color="#F7DD43" stop-opacity="0"/>
</linearGradient>
<linearGradient id="paint36_linear_122_130" x1="611.5" y1="987" x2="611.5" y2="1298.38" gradientUnits="userSpaceOnUse">
<stop stop-color="#F7DD43"/>
<stop offset="1" stop-color="#F7DD43" stop-opacity="0"/>
</linearGradient>
<linearGradient id="paint37_linear_122_130" x1="611.5" y1="987" x2="611.5" y2="1298.38" gradientUnits="userSpaceOnUse">
<stop stop-color="#F7DD43"/>
<stop offset="1" stop-color="#F7DD43" stop-opacity="0"/>
</linearGradient>
<linearGradient id="paint38_linear_122_130" x1="611.5" y1="987" x2="611.5" y2="1298.38" gradientUnits="userSpaceOnUse">
<stop stop-color="#F7DD43"/>
<stop offset="1" stop-color="#F7DD43" stop-opacity="0"/>
</linearGradient>
<linearGradient id="paint39_linear_122_130" x1="611.5" y1="987" x2="611.5" y2="1298.38" gradientUnits="userSpaceOnUse">
<stop stop-color="#F7DD43"/>
<stop offset="1" stop-color="#F7DD43" stop-opacity="0"/>
</linearGradient>
<linearGradient id="paint40_linear_122_130" x1="611.5" y1="987" x2="611.5" y2="1298.38" gradientUnits="userSpaceOnUse">
<stop stop-color="#F7DD43"/>
<stop offset="1" stop-color="#F7DD43" stop-opacity="0"/>
</linearGradient>
<linearGradient id="paint41_linear_122_130" x1="611.5" y1="987" x2="611.5" y2="1298.38" gradientUnits="userSpaceOnUse">
<stop stop-color="#F7DD43"/>
<stop offset="1" stop-color="#F7DD43" stop-opacity="0"/>
</linearGradient>
<linearGradient id="paint42_linear_122_130" x1="611.5" y1="987" x2="611.5" y2="1298.38" gradientUnits="userSpaceOnUse">
<stop stop-color="#F7DD43"/>
<stop offset="1" stop-color="#F7DD43" stop-opacity="0"/>
</linearGradient>
<linearGradient id="paint43_linear_122_130" x1="611.5" y1="987" x2="611.5" y2="1298.38" gradientUnits="userSpaceOnUse">
<stop stop-color="#F7DD43"/>
<stop offset="1" stop-color="#F7DD43" stop-opacity="0"/>
</linearGradient>
<linearGradient id="paint44_linear_122_130" x1="611.5" y1="987" x2="611.5" y2="1298.38" gradientUnits="userSpaceOnUse">
<stop stop-color="#F7DD43"/>
<stop offset="1" stop-color="#F7DD43" stop-opacity="0"/>
</linearGradient>
<linearGradient id="paint45_linear_122_130" x1="611.5" y1="987" x2="611.5" y2="1298.38" gradientUnits="userSpaceOnUse">
<stop stop-color="#F7DD43"/>
<stop offset="1" stop-color="#F7DD43" stop-opacity="0"/>
</linearGradient>
<linearGradient id="paint46_linear_122_130" x1="611.5" y1="987" x2="611.5" y2="1298.38" gradientUnits="userSpaceOnUse">
<stop stop-color="#F7DD43"/>
<stop offset="1" stop-color="#F7DD43" stop-opacity="0"/>
</linearGradient>
<linearGradient id="paint47_linear_122_130" x1="1497.5" y1="687" x2="1497.5" y2="985.818" gradientUnits="userSpaceOnUse">
<stop stop-color="#F7DD43"/>
<stop offset="1" stop-color="#F7DD43" stop-opacity="0"/>
</linearGradient>
<linearGradient id="paint48_linear_122_130" x1="1497.5" y1="687" x2="1497.5" y2="985.818" gradientUnits="userSpaceOnUse">
<stop stop-color="#F7DD43"/>
<stop offset="1" stop-color="#F7DD43" stop-opacity="0"/>
</linearGradient>
<linearGradient id="paint49_linear_122_130" x1="1497.5" y1="687" x2="1497.5" y2="985.818" gradientUnits="userSpaceOnUse">
<stop stop-color="#F7DD43"/>
<stop offset="1" stop-color="#F7DD43" stop-opacity="0"/>
</linearGradient>
<linearGradient id="paint50_linear_122_130" x1="1497.5" y1="687" x2="1497.5" y2="985.818" gradientUnits="userSpaceOnUse">
<stop stop-color="#F7DD43"/>
<stop offset="1" stop-color="#F7DD43" stop-opacity="0"/>
</linearGradient>
<linearGradient id="paint51_linear_122_130" x1="1497.5" y1="687" x2="1497.5" y2="985.818" gradientUnits="userSpaceOnUse">
<stop stop-color="#F7DD43"/>
<stop offset="1" stop-color="#F7DD43" stop-opacity="0"/>
</linearGradient>
<linearGradient id="paint52_linear_122_130" x1="1497.5" y1="687" x2="1497.5" y2="985.818" gradientUnits="userSpaceOnUse">
<stop stop-color="#F7DD43"/>
<stop offset="1" stop-color="#F7DD43" stop-opacity="0"/>
</linearGradient>
<linearGradient id="paint53_linear_122_130" x1="1497.5" y1="687" x2="1497.5" y2="985.818" gradientUnits="userSpaceOnUse">
<stop stop-color="#F7DD43"/>
<stop offset="1" stop-color="#F7DD43" stop-opacity="0"/>
</linearGradient>
<linearGradient id="paint54_linear_122_130" x1="1497.5" y1="687" x2="1497.5" y2="985.818" gradientUnits="userSpaceOnUse">
<stop stop-color="#F7DD43"/>
<stop offset="1" stop-color="#F7DD43" stop-opacity="0"/>
</linearGradient>
<linearGradient id="paint55_linear_122_130" x1="1497.5" y1="687" x2="1497.5" y2="985.818" gradientUnits="userSpaceOnUse">
<stop stop-color="#F7DD43"/>
<stop offset="1" stop-color="#F7DD43" stop-opacity="0"/>
</linearGradient>
<linearGradient id="paint56_linear_122_130" x1="1497.5" y1="687" x2="1497.5" y2="985.818" gradientUnits="userSpaceOnUse">
<stop stop-color="#F7DD43"/>
<stop offset="1" stop-color="#F7DD43" stop-opacity="0"/>
</linearGradient>
<linearGradient id="paint57_linear_122_130" x1="1497.5" y1="687" x2="1497.5" y2="985.818" gradientUnits="userSpaceOnUse">
<stop stop-color="#F7DD43"/>
<stop offset="1" stop-color="#F7DD43" stop-opacity="0"/>
</linearGradient>
<linearGradient id="paint58_linear_122_130" x1="1497.5" y1="687" x2="1497.5" y2="985.818" gradientUnits="userSpaceOnUse">
<stop stop-color="#F7DD43"/>
<stop offset="1" stop-color="#F7DD43" stop-opacity="0"/>
</linearGradient>
<linearGradient id="paint59_linear_122_130" x1="1497.5" y1="687" x2="1497.5" y2="985.818" gradientUnits="userSpaceOnUse">
<stop stop-color="#F7DD43"/>
<stop offset="1" stop-color="#F7DD43" stop-opacity="0"/>
</linearGradient>
<linearGradient id="paint60_linear_122_130" x1="1497.5" y1="687" x2="1497.5" y2="985.818" gradientUnits="userSpaceOnUse">
<stop stop-color="#F7DD43"/>
<stop offset="1" stop-color="#F7DD43" stop-opacity="0"/>
</linearGradient>
<linearGradient id="paint61_linear_122_130" x1="1497.5" y1="687" x2="1497.5" y2="985.818" gradientUnits="userSpaceOnUse">
<stop stop-color="#F7DD43"/>
<stop offset="1" stop-color="#F7DD43" stop-opacity="0"/>
</linearGradient>
<linearGradient id="paint62_linear_122_130" x1="1497.5" y1="687" x2="1497.5" y2="985.818" gradientUnits="userSpaceOnUse">
<stop stop-color="#F7DD43"/>
<stop offset="1" stop-color="#F7DD43" stop-opacity="0"/>
</linearGradient>
<linearGradient id="paint63_linear_122_130" x1="1497.5" y1="687" x2="1497.5" y2="985.818" gradientUnits="userSpaceOnUse">
<stop stop-color="#F7DD43"/>
<stop offset="1" stop-color="#F7DD43" stop-opacity="0"/>
</linearGradient>
<linearGradient id="paint64_linear_122_130" x1="1497.5" y1="687" x2="1497.5" y2="985.818" gradientUnits="userSpaceOnUse">
<stop stop-color="#F7DD43"/>
<stop offset="1" stop-color="#F7DD43" stop-opacity="0"/>
</linearGradient>
<linearGradient id="paint65_linear_122_130" x1="1497.5" y1="687" x2="1497.5" y2="985.818" gradientUnits="userSpaceOnUse">
<stop stop-color="#F7DD43"/>
<stop offset="1" stop-color="#F7DD43" stop-opacity="0"/>
</linearGradient>
<linearGradient id="paint66_linear_122_130" x1="1497.5" y1="687" x2="1497.5" y2="985.818" gradientUnits="userSpaceOnUse">
<stop stop-color="#F7DD43"/>
<stop offset="1" stop-color="#F7DD43" stop-opacity="0"/>
</linearGradient>
<linearGradient id="paint67_linear_122_130" x1="1497.5" y1="687" x2="1497.5" y2="985.818" gradientUnits="userSpaceOnUse">
<stop stop-color="#F7DD43"/>
<stop offset="1" stop-color="#F7DD43" stop-opacity="0"/>
</linearGradient>
<linearGradient id="paint68_linear_122_130" x1="1497.5" y1="687" x2="1497.5" y2="985.818" gradientUnits="userSpaceOnUse">
<stop stop-color="#F7DD43"/>
<stop offset="1" stop-color="#F7DD43" stop-opacity="0"/>
</linearGradient>
<linearGradient id="paint69_linear_122_130" x1="1497.5" y1="687" x2="1497.5" y2="985.818" gradientUnits="userSpaceOnUse">
<stop stop-color="#F7DD43"/>
<stop offset="1" stop-color="#F7DD43" stop-opacity="0"/>
</linearGradient>
<linearGradient id="paint70_linear_122_130" x1="1497.5" y1="687" x2="1497.5" y2="985.818" gradientUnits="userSpaceOnUse">
<stop stop-color="#F7DD43"/>
<stop offset="1" stop-color="#F7DD43" stop-opacity="0"/>
</linearGradient>
<linearGradient id="paint71_linear_122_130" x1="1497.5" y1="687" x2="1497.5" y2="985.818" gradientUnits="userSpaceOnUse">
<stop stop-color="#F7DD43"/>
<stop offset="1" stop-color="#F7DD43" stop-opacity="0"/>
</linearGradient>
<linearGradient id="paint72_linear_122_130" x1="1497.5" y1="687" x2="1497.5" y2="985.818" gradientUnits="userSpaceOnUse">
<stop stop-color="#F7DD43"/>
<stop offset="1" stop-color="#F7DD43" stop-opacity="0"/>
</linearGradient>
<linearGradient id="paint73_linear_122_130" x1="1497.5" y1="687" x2="1497.5" y2="985.818" gradientUnits="userSpaceOnUse">
<stop stop-color="#F7DD43"/>
<stop offset="1" stop-color="#F7DD43" stop-opacity="0"/>
</linearGradient>
<linearGradient id="paint74_linear_122_130" x1="1497.5" y1="687" x2="1497.5" y2="985.818" gradientUnits="userSpaceOnUse">
<stop stop-color="#F7DD43"/>
<stop offset="1" stop-color="#F7DD43" stop-opacity="0"/>
</linearGradient>
<linearGradient id="paint75_linear_122_130" x1="1497.5" y1="687" x2="1497.5" y2="985.818" gradientUnits="userSpaceOnUse">
<stop stop-color="#F7DD43"/>
<stop offset="1" stop-color="#F7DD43" stop-opacity="0"/>
</linearGradient>
<linearGradient id="paint76_linear_122_130" x1="1497.5" y1="687" x2="1497.5" y2="985.818" gradientUnits="userSpaceOnUse">
<stop stop-color="#F7DD43"/>
<stop offset="1" stop-color="#F7DD43" stop-opacity="0"/>
</linearGradient>
<linearGradient id="paint77_linear_122_130" x1="1497.5" y1="687" x2="1497.5" y2="985.818" gradientUnits="userSpaceOnUse">
<stop stop-color="#F7DD43"/>
<stop offset="1" stop-color="#F7DD43" stop-opacity="0"/>
</linearGradient>
<linearGradient id="paint78_linear_122_130" x1="1497.5" y1="687" x2="1497.5" y2="985.818" gradientUnits="userSpaceOnUse">
<stop stop-color="#F7DD43"/>
<stop offset="1" stop-color="#F7DD43" stop-opacity="0"/>
</linearGradient>
<linearGradient id="paint79_linear_122_130" x1="1497.5" y1="687" x2="1497.5" y2="985.818" gradientUnits="userSpaceOnUse">
<stop stop-color="#F7DD43"/>
<stop offset="1" stop-color="#F7DD43" stop-opacity="0"/>
</linearGradient>
<linearGradient id="paint80_linear_122_130" x1="1497.5" y1="687" x2="1497.5" y2="985.818" gradientUnits="userSpaceOnUse">
<stop stop-color="#F7DD43"/>
<stop offset="1" stop-color="#F7DD43" stop-opacity="0"/>
</linearGradient>
<linearGradient id="paint81_linear_122_130" x1="1497.5" y1="687" x2="1497.5" y2="985.818" gradientUnits="userSpaceOnUse">
<stop stop-color="#F7DD43"/>
<stop offset="1" stop-color="#F7DD43" stop-opacity="0"/>
</linearGradient>
<linearGradient id="paint82_linear_122_130" x1="1497.5" y1="687" x2="1497.5" y2="985.818" gradientUnits="userSpaceOnUse">
<stop stop-color="#F7DD43"/>
<stop offset="1" stop-color="#F7DD43" stop-opacity="0"/>
</linearGradient>
<linearGradient id="paint83_linear_122_130" x1="1497.5" y1="687" x2="1497.5" y2="985.818" gradientUnits="userSpaceOnUse">
<stop stop-color="#F7DD43"/>
<stop offset="1" stop-color="#F7DD43" stop-opacity="0"/>
</linearGradient>
<linearGradient id="paint84_linear_122_130" x1="1497.5" y1="687" x2="1497.5" y2="985.818" gradientUnits="userSpaceOnUse">
<stop stop-color="#F7DD43"/>
<stop offset="1" stop-color="#F7DD43" stop-opacity="0"/>
</linearGradient>
<linearGradient id="paint85_linear_122_130" x1="1497.5" y1="687" x2="1497.5" y2="985.818" gradientUnits="userSpaceOnUse">
<stop stop-color="#F7DD43"/>
<stop offset="1" stop-color="#F7DD43" stop-opacity="0"/>
</linearGradient>
<linearGradient id="paint86_linear_122_130" x1="1497.5" y1="687" x2="1497.5" y2="985.818" gradientUnits="userSpaceOnUse">
<stop stop-color="#F7DD43"/>
<stop offset="1" stop-color="#F7DD43" stop-opacity="0"/>
</linearGradient>
<linearGradient id="paint87_linear_122_130" x1="1497.5" y1="687" x2="1497.5" y2="985.818" gradientUnits="userSpaceOnUse">
<stop stop-color="#F7DD43"/>
<stop offset="1" stop-color="#F7DD43" stop-opacity="0"/>
</linearGradient>
<linearGradient id="paint88_linear_122_130" x1="1497.5" y1="687" x2="1497.5" y2="985.818" gradientUnits="userSpaceOnUse">
<stop stop-color="#F7DD43"/>
<stop offset="1" stop-color="#F7DD43" stop-opacity="0"/>
</linearGradient>
<linearGradient id="paint89_linear_122_130" x1="1497.5" y1="687" x2="1497.5" y2="985.818" gradientUnits="userSpaceOnUse">
<stop stop-color="#F7DD43"/>
<stop offset="1" stop-color="#F7DD43" stop-opacity="0"/>
</linearGradient>
<linearGradient id="paint90_linear_122_130" x1="1497.5" y1="687" x2="1497.5" y2="985.818" gradientUnits="userSpaceOnUse">
<stop stop-color="#F7DD43"/>
<stop offset="1" stop-color="#F7DD43" stop-opacity="0"/>
</linearGradient>
<linearGradient id="paint91_linear_122_130" x1="1497.5" y1="687" x2="1497.5" y2="985.818" gradientUnits="userSpaceOnUse">
<stop stop-color="#F7DD43"/>
<stop offset="1" stop-color="#F7DD43" stop-opacity="0"/>
</linearGradient>
<linearGradient id="paint92_linear_122_130" x1="1497.5" y1="687" x2="1497.5" y2="985.818" gradientUnits="userSpaceOnUse">
<stop stop-color="#F7DD43"/>
<stop offset="1" stop-color="#F7DD43" stop-opacity="0"/>
</linearGradient>
<linearGradient id="paint93_linear_122_130" x1="1497.5" y1="687" x2="1497.5" y2="985.818" gradientUnits="userSpaceOnUse">
<stop stop-color="#F7DD43"/>
<stop offset="1" stop-color="#F7DD43" stop-opacity="0"/>
</linearGradient>
</defs>
</svg>
